<svg id="e3d61888-7913-4ace-a41b-81e699b58e17" data-name="Réteg 1" xmlns="http://www.w3.org/2000/svg" viewBox="0 0 582.2201 364.6877">
  <defs>
    <style>
      .ead30c13-0628-4b34-96b7-f8b226f9fcc8 {
        fill: #f0f;
      }

      .f6d0c47d-9b76-418b-97ef-2ff6e7285ff7 {
        fill: aqua;
      }

      .be348324-d714-4020-9f2a-f8459a17dacc {
        fill: #39b54a;
      }
    </style>
  </defs>
  <title>constructors-card-bg</title>
  <rect class="ead30c13-0628-4b34-96b7-f8b226f9fcc8" x="405.9784" y="201.6369" width="180" height="3" transform="translate(-12.4136 392.4002) rotate(-40.7152)"/>
  <rect class="f6d0c47d-9b76-418b-97ef-2ff6e7285ff7" x="420.9784" y="175.6369" width="180" height="3" transform="translate(8.1768 395.8917) rotate(-40.7152)"/>
  <rect class="ead30c13-0628-4b34-96b7-f8b226f9fcc8" x="486.497" y="251.4465" width="107.1345" height="4.6216" transform="translate(-34.7628 433.4094) rotate(-40.7152)"/>
  <rect class="f6d0c47d-9b76-418b-97ef-2ff6e7285ff7" x="146.5185" y="282.3974" width="180" height="4.4103" transform="translate(-128.3528 242.8725) rotate(-40.7152)"/>
  <rect class="be348324-d714-4020-9f2a-f8459a17dacc" x="226.1706" y="141.8321" width="261.7855" height="5.8205" transform="translate(-7.9456 287.6523) rotate(-40.7152)"/>
  <rect class="ead30c13-0628-4b34-96b7-f8b226f9fcc8" x="41.9784" y="263.6369" width="180" height="3" transform="translate(-140.9581 169.9697) rotate(-40.7152)"/>
  <rect class="ead30c13-0628-4b34-96b7-f8b226f9fcc8" x="214.685" y="95.7035" width="48.3628" height="3" transform="translate(-5.5443 199.0463) rotate(-40.7152)"/>
  <rect class="f6d0c47d-9b76-418b-97ef-2ff6e7285ff7" x="-12.5206" y="126.4796" width="118.7606" height="5.8205" transform="translate(-73.0124 81.5908) rotate(-40.7152)"/>
  <rect class="f6d0c47d-9b76-418b-97ef-2ff6e7285ff7" x="146.9784" y="38.6369" width="180" height="3" transform="translate(31.2232 184.0025) rotate(-40.7152)"/>
</svg>
