<svg xmlns="http://www.w3.org/2000/svg" xmlns:xlink="http://www.w3.org/1999/xlink" viewBox="0 0 1328.87 1159.48"><defs><style>.a{fill:#00d2be;}.b{fill:#fff;}.c{fill:red;}.d{fill:#ff0;}.e{fill:#f2f2f2;}.f{fill:#ececec;}.g{mask:url(#a);}.h{mask:url(#b);}</style><mask id="a" x="394.21" y="201.41" width="283.66" height="333.88" maskUnits="userSpaceOnUse"><g transform="translate(-266.62 -17.66)"><path class="a" d="M712.08,360.41v52.65H699.26V391.39h-20v21.67H666.48V360.41h12.83V381h20V360.41Zm42,43.35H734.47l-3.15,9.3H717.89l19.05-52.65h14.85l19.05,52.65H757.27Zm-3.3-9.9-6.53-19.27-6.45,19.27Zm85.45-33.45v52.65H823.44V381.49l-11.77,31.57H801.32l-11.85-31.65v31.65H776.64V360.41h15.15l14.78,36.45,14.62-36.45Z"/></g></mask><mask id="b" x="643.69" y="330.5" width="146.27" height="137.54" maskUnits="userSpaceOnUse"><g transform="translate(-266.62 -17.66)"><path class="b" d="M942.18,406.15a12.19,12.19,0,0,1,7.35,4.58,12.74,12.74,0,0,1,2.78,8.1,13,13,0,0,1-4.65,10.5q-4.57,3.82-12.83,3.82H910.31V380.5H934q8,0,12.52,3.68a12.11,12.11,0,0,1,4.58,10,11.94,11.94,0,0,1-2.48,7.73A12.4,12.4,0,0,1,942.18,406.15Zm-19-4.35h8.4a7.42,7.42,0,0,0,4.8-1.35,5.78,5.78,0,0,0,0-8.25,7.15,7.15,0,0,0-4.8-1.42h-8.4Zm9.45,21a7.59,7.59,0,0,0,4.95-1.42,5.26,5.26,0,0,0,1.8-4.28,5.37,5.37,0,0,0-1.87-4.35,7.39,7.39,0,0,0-5-1.57h-9.3V422.8Zm52.07,10.88A27.69,27.69,0,0,1,971,430.23a26.24,26.24,0,0,1-9.83-9.6,27.36,27.36,0,0,1-3.6-13.95,27,27,0,0,1,3.6-13.88,26.24,26.24,0,0,1,9.83-9.6,27.69,27.69,0,0,1,13.65-3.45,27.25,27.25,0,0,1,13.57,3.45,25,25,0,0,1,9.75,9.6,27,27,0,0,1,3.6,13.88,27.36,27.36,0,0,1-3.6,13.95,25.68,25.68,0,0,1-9.75,9.6A27.25,27.25,0,0,1,984.65,433.68Zm0-11.7a12.8,12.8,0,0,0,10.05-4.2q3.82-4.2,3.82-11.1t-3.82-11.1a12.8,12.8,0,0,0-10.05-4.2,13.24,13.24,0,0,0-10.2,4.12q-3.75,4.13-3.75,11.18t3.75,11.17A13.25,13.25,0,0,0,984.65,422Zm71.93-41.48v10.28h-13.95v42.37h-12.82V390.78h-13.95V380.5Z"/></g></mask></defs><path class="c" d="M858.49,299.82l-26-24L430.82,615.67Z" transform="translate(-266.62 -17.66)"/><path class="d" d="M661.15,354.6,558.84,332.8l-42.76,15.65Z" transform="translate(-266.62 -17.66)"/><path class="e" d="M1268.48,405.46l97.62-37.56,27.3-36.46Z" transform="translate(-266.62 -17.66)"/><rect class="c" x="1035.43" y="349.87" width="242.51" height="341.29" transform="translate(28.45 1433.7) rotate(-71.44)"/><rect class="b" x="341.54" y="199.85" width="740.23" height="549.54" transform="translate(-315.34 848.8) rotate(-60.96)"/><rect class="a" x="615.63" y="336.55" width="900.87" height="607.78" transform="translate(-395.94 965.88) rotate(-47.01)"/><rect class="b" x="1037.88" y="354.69" width="373.23" height="1.91" transform="translate(-137.22 991.17) rotate(-47.01)"/><rect class="b" x="1048.75" y="355.67" width="373.23" height="1.91" transform="translate(-134.48 999.43) rotate(-47.01)"/><rect class="b" x="1033.65" y="343.37" width="373.23" height="1.91" transform="translate(-130.28 984.47) rotate(-47.01)"/><rect class="a" x="212.18" y="648.19" width="373.23" height="1.91" transform="translate(-614.58 480.56) rotate(-47.01)"/><rect class="a" x="223.04" y="649.17" width="373.23" height="1.91" transform="translate(-611.84 488.82) rotate(-47.01)"/><rect class="a" x="207.95" y="636.87" width="373.23" height="1.91" transform="translate(-607.64 473.87) rotate(-47.01)"/><rect class="a" x="629.25" y="368.17" width="373.23" height="5.05" transform="translate(-278.22 697.06) rotate(-47.01)"/><rect class="a" x="603.66" y="412.24" width="373.23" height="4.73" transform="translate(-318.48 692.31) rotate(-47.01)"/><rect class="a" x="622.64" y="354.51" width="373.23" height="5.28" transform="translate(-270.42 687.91) rotate(-47.01)"/><rect class="a" x="406.49" y="431.42" width="202.82" height="3.57" transform="translate(-421.92 491.67) rotate(-47.01)"/><rect class="a" x="412.32" y="438.43" width="202.82" height="3.57" transform="translate(-425.19 498.16) rotate(-47.01)"/><rect class="a" x="497.85" y="362.4" width="202.82" height="3.57" transform="translate(-342.37 536.54) rotate(-47.01)"/><rect class="a" x="613.35" y="446.45" width="50.61" height="1.34" transform="translate(-390.5 591.74) rotate(-47.01)"/><rect class="b" x="771.65" y="465.31" width="544.25" height="1.91" transform="translate(-275.62 894.17) rotate(-47.01)"/><rect class="b" x="932.02" y="389.56" width="113.77" height="4.01" transform="translate(-238.44 830.27) rotate(-47.01)"/><rect class="b" x="951.23" y="408.02" width="63.31" height="4.01" transform="translate(-253.86 831.73) rotate(-47.01)"/><rect class="b" x="903.1" y="433.81" width="133.83" height="4.01" transform="translate(-276.82 830.53) rotate(-47.01)"/><rect class="b" x="959.6" y="469.66" width="373.23" height="5.79" transform="translate(-247.63 971.1) rotate(-47.01)"/><rect class="f" x="495.95" y="472.81" width="528.75" height="24.82" transform="translate(-379.34 694.09) rotate(-47.09)"/><rect class="b" x="909.92" y="644.92" width="176.68" height="1.91" transform="translate(-421.49 918.01) rotate(-47.01)"/><rect class="b" x="919.98" y="644.92" width="176.68" height="1.91" transform="translate(-418.29 925.37) rotate(-47.01)"/><rect class="b" x="931.72" y="644.92" width="176.68" height="1.91" transform="translate(-414.55 933.96) rotate(-47.01)"/><rect class="b" x="1094.27" y="590.05" width="289.77" height="5.93" transform="translate(-306.18 1077.41) rotate(-47.01)"/><rect class="b" x="1100.81" y="602.92" width="289.77" height="3.26" transform="translate(-312.54 1085.85) rotate(-47.01)"/><rect class="e" x="1085.85" y="581.66" width="289.77" height="5.93" transform="translate(-302.73 1068.58) rotate(-47.01)"/><path d="M1173.38,305.56l174.7,337.94H401.91l104-264.15Z" transform="translate(-266.62 -17.66)"/><g class="g"><path class="a" d="M712.08,360.41v52.65H699.26V391.39h-20v21.67H666.48V360.41h12.83V381h20V360.41Zm42,43.35H734.47l-3.15,9.3H717.89l19.05-52.65h14.85l19.05,52.65H757.27Zm-3.3-9.9-6.53-19.27-6.45,19.27Zm85.45-33.45v52.65H823.44V381.49l-11.77,31.57H801.32l-11.85-31.65v31.65H776.64V360.41h15.15l14.78,36.45,14.62-36.45Z" transform="translate(-266.62 -17.66)"/><rect class="b" x="628.79" y="368.38" width="373.23" height="5.05" transform="translate(-278.53 696.78) rotate(-47.01)"/><rect class="b" x="603.2" y="412.46" width="373.23" height="4.73" transform="translate(-318.79 692.03) rotate(-47.01)"/><rect class="b" x="622.18" y="354.73" width="373.23" height="5.28" transform="translate(-270.73 687.64) rotate(-47.01)"/></g><g class="h"><path class="b" d="M942.18,406.15a12.19,12.19,0,0,1,7.35,4.58,12.74,12.74,0,0,1,2.78,8.1,13,13,0,0,1-4.65,10.5q-4.57,3.82-12.83,3.82H910.31V380.5H934q8,0,12.52,3.68a12.11,12.11,0,0,1,4.58,10,11.94,11.94,0,0,1-2.48,7.73A12.4,12.4,0,0,1,942.18,406.15Zm-19-4.35h8.4a7.42,7.42,0,0,0,4.8-1.35,5.78,5.78,0,0,0,0-8.25,7.15,7.15,0,0,0-4.8-1.42h-8.4Zm9.45,21a7.59,7.59,0,0,0,4.95-1.42,5.26,5.26,0,0,0,1.8-4.28,5.37,5.37,0,0,0-1.87-4.35,7.39,7.39,0,0,0-5-1.57h-9.3V422.8Zm52.07,10.88A27.69,27.69,0,0,1,971,430.23a26.24,26.24,0,0,1-9.83-9.6,27.36,27.36,0,0,1-3.6-13.95,27,27,0,0,1,3.6-13.88,26.24,26.24,0,0,1,9.83-9.6,27.69,27.69,0,0,1,13.65-3.45,27.25,27.25,0,0,1,13.57,3.45,25,25,0,0,1,9.75,9.6,27,27,0,0,1,3.6,13.88,27.36,27.36,0,0,1-3.6,13.95,25.68,25.68,0,0,1-9.75,9.6A27.25,27.25,0,0,1,984.65,433.68Zm0-11.7a12.8,12.8,0,0,0,10.05-4.2q3.82-4.2,3.82-11.1t-3.82-11.1a12.8,12.8,0,0,0-10.05-4.2,13.24,13.24,0,0,0-10.2,4.12q-3.75,4.13-3.75,11.18t3.75,11.17A13.25,13.25,0,0,0,984.65,422Zm71.93-41.48v10.28h-13.95v42.37h-12.82V390.78h-13.95V380.5Z" transform="translate(-266.62 -17.66)"/><rect class="a" x="934.75" y="389.13" width="113.77" height="4.01" transform="translate(-237.25 832.13) rotate(-47.01)"/><rect class="a" x="953.96" y="407.58" width="63.31" height="4.01" transform="translate(-252.67 833.6) rotate(-47.01)"/><rect class="a" x="905.84" y="433.38" width="133.83" height="4.01" transform="translate(-275.63 832.39) rotate(-47.01)"/></g></svg>