<svg xmlns="http://www.w3.org/2000/svg" xmlns:xlink="http://www.w3.org/1999/xlink" viewBox="0 0 1303.69 1159.43"><defs><style>.a{fill:none;}.b{fill:red;}.c{fill:#ff0;}.d{fill:#f2f2f2;}.e{clip-path:url(#a);}.f{fill:#fff;}.g{fill:#00d2be;}.h{fill:#ececec;}.i{clip-path:url(#b);}.j{fill:#2800bc;}</style><clipPath id="a" transform="translate(-25.18 -0.04)"><polygon class="a" points="906.76 287.9 1081.46 625.84 135.29 625.84 239.29 361.69 906.76 287.9"/></clipPath><clipPath id="b" transform="translate(-25.18 -0.04)"><polygon class="a" points="906.38 287.7 1081.09 625.64 134.91 625.64 238.91 361.49 906.38 287.7"/></clipPath></defs><path class="b" d="M591.87,282.16l-26-24L164.2,598Z" transform="translate(-25.18 -0.04)"/><path class="c" d="M394.53,336.94l-102.31-21.8-42.76,15.65Z" transform="translate(-25.18 -0.04)"/><path class="d" d="M1001.86,387.8l97.62-37.56,27.3-36.46Z" transform="translate(-25.18 -0.04)"/><rect class="b" x="768.81" y="332.21" width="242.51" height="341.29" transform="translate(104.88 1186.53) rotate(-71.44)"/><g class="e"><rect class="f" x="74.95" y="182.23" width="740.23" height="549.54" transform="translate(-195.7 624.23) rotate(-60.96)"/><rect class="g" x="349.01" y="318.89" width="900.87" height="607.78" transform="translate(-226.4 782.85) rotate(-47.01)"/><rect class="h" x="234.63" y="459.37" width="528.75" height="24.82" transform="translate(-211.46 516.01) rotate(-47.09)"/><g class="i"><rect class="d" x="576.42" y="117.89" width="2.07" height="527.41"/><rect class="d" x="800.57" y="197.59" width="2.07" height="266.51"/><rect class="d" x="804.79" y="241.74" width="2.07" height="233.03"/><rect class="d" x="816.27" y="265.15" width="2.07" height="211.4"/><rect class="d" x="721.23" y="230.43" width="6.59" height="363.46"/><rect class="d" x="705.23" y="525.26" width="2.07" height="108.89"/><rect class="d" x="716.86" y="525.26" width="2.07" height="108.89"/><rect class="d" x="729.34" y="525.26" width="2.07" height="108.89"/><rect class="d" x="877.79" y="434.18" width="7.81" height="194.11"/><rect class="d" x="896.47" y="434.18" width="7.81" height="194.11"/><rect class="d" x="916.47" y="434.18" width="3.91" height="194.11"/><rect class="d" x="655.34" y="335.07" width="4.04" height="81.7"/><rect class="d" x="668.14" y="335.07" width="4.04" height="81.7"/><rect class="d" x="630.58" y="353.44" width="4.04" height="115.46"/><rect class="j" x="368.1" y="251.66" width="4.04" height="284.62"/><rect class="j" x="395.47" y="249" width="4.04" height="242.72"/><rect class="j" x="386.9" y="234.82" width="4.04" height="242.72"/><rect class="j" x="329.01" y="404.18" width="1.19" height="44.22"/><rect class="j" x="173.47" y="260.85" width="3.02" height="201.25"/><rect class="j" x="178.65" y="269.89" width="3.02" height="201.25"/><rect class="j" x="237.16" y="250.63" width="3.02" height="172.07"/><rect class="j" x="118.91" y="438.24" width="2.1" height="165.6"/><rect class="j" x="112.09" y="460.19" width="2.1" height="165.6"/><rect class="j" x="124.24" y="460.19" width="2.1" height="165.6"/></g></g></svg>