<svg width="342" height="485" viewBox="0 0 342 485" fill="none" xmlns="http://www.w3.org/2000/svg">
<circle cx="12" cy="5" r="5" fill="#E10600" fill-opacity="0.15"/>
<circle cx="37" cy="5" r="5" fill="#E10600" fill-opacity="0.15"/>
<circle cx="62" cy="5" r="5" fill="#E10600" fill-opacity="0.15"/>
<circle cx="87" cy="5" r="5" fill="#E10600" fill-opacity="0.15"/>
<circle cx="112" cy="5" r="5" fill="#E10600" fill-opacity="0.15"/>
<circle cx="137" cy="5" r="5" fill="#E10600" fill-opacity="0.15"/>
<circle cx="162" cy="5" r="5" fill="#E10600" fill-opacity="0.15"/>
<circle cx="187" cy="5" r="5" fill="#E10600" fill-opacity="0.15"/>
<circle cx="212" cy="5" r="5" fill="#E10600" fill-opacity="0.15"/>
<circle cx="237" cy="5" r="5" fill="#E10600" fill-opacity="0.15"/>
<circle cx="262" cy="5" r="5" fill="#E10600" fill-opacity="0.15"/>
<circle cx="287" cy="5" r="5" fill="#E10600" fill-opacity="0.15"/>
<circle cx="312" cy="5" r="5" fill="#E10600" fill-opacity="0.15"/>
<circle cx="337" cy="5" r="5" fill="#E10600" fill-opacity="0.15"/>
<circle cx="12" cy="30" r="5" fill="#E10600" fill-opacity="0.15"/>
<circle cx="37" cy="30" r="5" fill="#E10600" fill-opacity="0.15"/>
<circle cx="62" cy="30" r="5" fill="#E10600" fill-opacity="0.15"/>
<circle cx="87" cy="30" r="5" fill="#E10600" fill-opacity="0.15"/>
<circle cx="112" cy="30" r="5" fill="#E10600" fill-opacity="0.15"/>
<circle cx="137" cy="30" r="5" fill="#E10600" fill-opacity="0.15"/>
<circle cx="162" cy="30" r="5" fill="#E10600" fill-opacity="0.15"/>
<circle cx="187" cy="30" r="5" fill="#E10600" fill-opacity="0.15"/>
<circle cx="212" cy="30" r="5" fill="#E10600" fill-opacity="0.15"/>
<circle cx="237" cy="30" r="5" fill="#E10600" fill-opacity="0.15"/>
<circle cx="262" cy="30" r="5" fill="#E10600" fill-opacity="0.15"/>
<circle cx="287" cy="30" r="5" fill="#E10600" fill-opacity="0.15"/>
<circle cx="312" cy="30" r="5" fill="#E10600" fill-opacity="0.15"/>
<circle cx="337" cy="30" r="5" fill="#E10600" fill-opacity="0.15"/>
<circle cx="12" cy="55" r="5" fill="#E10600" fill-opacity="0.15"/>
<circle cx="37" cy="55" r="5" fill="#E10600" fill-opacity="0.15"/>
<circle cx="62" cy="55" r="5" fill="#E10600" fill-opacity="0.15"/>
<circle cx="87" cy="55" r="5" fill="#E10600" fill-opacity="0.15"/>
<circle cx="112" cy="55" r="5" fill="#E10600" fill-opacity="0.15"/>
<circle cx="137" cy="55" r="5" fill="#E10600" fill-opacity="0.15"/>
<circle cx="162" cy="55" r="5" fill="#E10600" fill-opacity="0.15"/>
<circle cx="187" cy="55" r="5" fill="#E10600" fill-opacity="0.15"/>
<circle cx="212" cy="55" r="5" fill="#E10600" fill-opacity="0.15"/>
<circle cx="237" cy="55" r="5" fill="#E10600" fill-opacity="0.15"/>
<circle cx="262" cy="55" r="5" fill="#E10600" fill-opacity="0.15"/>
<circle cx="287" cy="55" r="5" fill="#E10600" fill-opacity="0.15"/>
<circle cx="312" cy="55" r="5" fill="#E10600" fill-opacity="0.15"/>
<circle cx="337" cy="55" r="5" fill="#E10600" fill-opacity="0.15"/>
<circle cx="12" cy="80" r="5" fill="#E10600" fill-opacity="0.15"/>
<circle cx="37" cy="80" r="5" fill="#E10600" fill-opacity="0.15"/>
<circle cx="62" cy="80" r="5" fill="#E10600" fill-opacity="0.15"/>
<circle cx="87" cy="80" r="5" fill="#E10600" fill-opacity="0.15"/>
<circle cx="112" cy="80" r="5" fill="#E10600" fill-opacity="0.15"/>
<circle cx="137" cy="80" r="5" fill="#E10600" fill-opacity="0.15"/>
<circle cx="162" cy="80" r="5" fill="#E10600" fill-opacity="0.15"/>
<circle cx="187" cy="80" r="5" fill="#E10600" fill-opacity="0.15"/>
<circle cx="212" cy="80" r="5" fill="#E10600" fill-opacity="0.15"/>
<circle cx="237" cy="80" r="5" fill="#E10600" fill-opacity="0.15"/>
<circle cx="262" cy="80" r="5" fill="#E10600" fill-opacity="0.15"/>
<circle cx="287" cy="80" r="5" fill="#E10600" fill-opacity="0.15"/>
<circle cx="312" cy="80" r="5" fill="#E10600" fill-opacity="0.15"/>
<circle cx="337" cy="80" r="5" fill="#E10600" fill-opacity="0.15"/>
<circle cx="12" cy="105" r="5" fill="#E10600" fill-opacity="0.15"/>
<circle cx="37" cy="105" r="5" fill="#E10600" fill-opacity="0.15"/>
<circle cx="62" cy="105" r="5" fill="#E10600" fill-opacity="0.15"/>
<circle cx="87" cy="105" r="5" fill="#E10600" fill-opacity="0.15"/>
<circle cx="112" cy="105" r="5" fill="#E10600" fill-opacity="0.15"/>
<circle cx="137" cy="105" r="5" fill="#E10600" fill-opacity="0.15"/>
<circle cx="162" cy="105" r="5" fill="#E10600" fill-opacity="0.15"/>
<circle cx="187" cy="105" r="5" fill="#E10600" fill-opacity="0.15"/>
<circle cx="212" cy="105" r="5" fill="#E10600" fill-opacity="0.15"/>
<circle cx="237" cy="105" r="5" fill="#E10600" fill-opacity="0.15"/>
<circle cx="262" cy="105" r="5" fill="#E10600" fill-opacity="0.15"/>
<circle cx="287" cy="105" r="5" fill="#E10600" fill-opacity="0.15"/>
<circle cx="312" cy="105" r="5" fill="#E10600" fill-opacity="0.15"/>
<circle cx="337" cy="105" r="5" fill="#E10600" fill-opacity="0.15"/>
<circle cx="12" cy="130" r="5" fill="#E10600" fill-opacity="0.15"/>
<circle cx="37" cy="130" r="5" fill="#E10600" fill-opacity="0.15"/>
<circle cx="62" cy="130" r="5" fill="#E10600" fill-opacity="0.15"/>
<circle cx="87" cy="130" r="5" fill="#E10600" fill-opacity="0.15"/>
<circle cx="112" cy="130" r="5" fill="#E10600" fill-opacity="0.15"/>
<circle cx="137" cy="130" r="5" fill="#E10600" fill-opacity="0.15"/>
<circle cx="162" cy="130" r="5" fill="#E10600" fill-opacity="0.15"/>
<circle cx="187" cy="130" r="5" fill="#E10600" fill-opacity="0.15"/>
<circle cx="212" cy="130" r="5" fill="#E10600" fill-opacity="0.15"/>
<circle cx="237" cy="130" r="5" fill="#E10600" fill-opacity="0.15"/>
<circle cx="262" cy="130" r="5" fill="#E10600" fill-opacity="0.15"/>
<circle cx="287" cy="130" r="5" fill="#E10600" fill-opacity="0.15"/>
<circle cx="312" cy="130" r="5" fill="#E10600" fill-opacity="0.15"/>
<circle cx="337" cy="130" r="5" fill="#E10600" fill-opacity="0.15"/>
<circle cx="12" cy="155" r="5" fill="#E10600" fill-opacity="0.15"/>
<circle cx="37" cy="155" r="5" fill="#E10600" fill-opacity="0.15"/>
<circle cx="62" cy="155" r="5" fill="#E10600" fill-opacity="0.15"/>
<circle cx="87" cy="155" r="5" fill="#E10600" fill-opacity="0.15"/>
<circle cx="112" cy="155" r="5" fill="#E10600" fill-opacity="0.15"/>
<circle cx="137" cy="155" r="5" fill="#E10600" fill-opacity="0.15"/>
<circle cx="162" cy="155" r="5" fill="#E10600" fill-opacity="0.15"/>
<circle cx="187" cy="155" r="5" fill="#E10600" fill-opacity="0.15"/>
<circle cx="212" cy="155" r="5" fill="#E10600" fill-opacity="0.15"/>
<circle cx="237" cy="155" r="5" fill="#E10600" fill-opacity="0.15"/>
<circle cx="262" cy="155" r="5" fill="#E10600" fill-opacity="0.15"/>
<circle cx="287" cy="155" r="5" fill="#E10600" fill-opacity="0.15"/>
<circle cx="312" cy="155" r="5" fill="#E10600" fill-opacity="0.15"/>
<circle cx="337" cy="155" r="5" fill="#E10600" fill-opacity="0.15"/>
<circle cx="12" cy="180" r="5" fill="#E10600" fill-opacity="0.15"/>
<circle cx="37" cy="180" r="5" fill="#E10600" fill-opacity="0.15"/>
<circle cx="62" cy="180" r="5" fill="#E10600" fill-opacity="0.15"/>
<circle cx="87" cy="180" r="5" fill="#E10600" fill-opacity="0.15"/>
<circle cx="112" cy="180" r="5" fill="#E10600" fill-opacity="0.15"/>
<circle cx="137" cy="180" r="5" fill="#E10600" fill-opacity="0.15"/>
<circle cx="162" cy="180" r="5" fill="#E10600" fill-opacity="0.15"/>
<circle cx="187" cy="180" r="5" fill="#E10600" fill-opacity="0.15"/>
<circle cx="212" cy="180" r="5" fill="#E10600" fill-opacity="0.15"/>
<circle cx="237" cy="180" r="5" fill="#E10600" fill-opacity="0.15"/>
<circle cx="262" cy="180" r="5" fill="#E10600" fill-opacity="0.15"/>
<circle cx="287" cy="180" r="5" fill="#E10600" fill-opacity="0.15"/>
<circle cx="312" cy="180" r="5" fill="#E10600" fill-opacity="0.15"/>
<circle cx="337" cy="180" r="5" fill="#E10600" fill-opacity="0.15"/>
<circle cx="12" cy="205" r="5" fill="#E10600" fill-opacity="0.15"/>
<circle cx="37" cy="205" r="5" fill="#E10600" fill-opacity="0.15"/>
<circle cx="62" cy="205" r="5" fill="#E10600" fill-opacity="0.15"/>
<circle cx="87" cy="205" r="5" fill="#E10600" fill-opacity="0.15"/>
<circle cx="112" cy="205" r="5" fill="#E10600" fill-opacity="0.15"/>
<circle cx="137" cy="205" r="5" fill="#E10600" fill-opacity="0.15"/>
<circle cx="162" cy="205" r="5" fill="#E10600" fill-opacity="0.15"/>
<circle cx="187" cy="205" r="5" fill="#E10600" fill-opacity="0.15"/>
<circle cx="212" cy="205" r="5" fill="#E10600" fill-opacity="0.15"/>
<circle cx="237" cy="205" r="5" fill="#E10600" fill-opacity="0.15"/>
<circle cx="262" cy="205" r="5" fill="#E10600" fill-opacity="0.15"/>
<circle cx="287" cy="205" r="5" fill="#E10600" fill-opacity="0.15"/>
<circle cx="312" cy="205" r="5" fill="#E10600" fill-opacity="0.15"/>
<circle cx="337" cy="205" r="5" fill="#E10600" fill-opacity="0.15"/>
<circle cx="12" cy="230" r="5" fill="#E10600" fill-opacity="0.15"/>
<circle cx="37" cy="230" r="5" fill="#E10600" fill-opacity="0.15"/>
<circle cx="62" cy="230" r="5" fill="#E10600" fill-opacity="0.15"/>
<circle cx="87" cy="230" r="5" fill="#E10600" fill-opacity="0.15"/>
<circle cx="112" cy="230" r="5" fill="#E10600" fill-opacity="0.15"/>
<circle cx="137" cy="230" r="5" fill="#E10600" fill-opacity="0.15"/>
<circle cx="162" cy="230" r="5" fill="#E10600" fill-opacity="0.15"/>
<circle cx="187" cy="230" r="5" fill="#E10600" fill-opacity="0.15"/>
<circle cx="212" cy="230" r="5" fill="#E10600" fill-opacity="0.15"/>
<circle cx="237" cy="230" r="5" fill="#E10600" fill-opacity="0.15"/>
<circle cx="262" cy="230" r="5" fill="#E10600" fill-opacity="0.15"/>
<circle cx="287" cy="230" r="5" fill="#E10600" fill-opacity="0.15"/>
<circle cx="312" cy="230" r="5" fill="#E10600" fill-opacity="0.15"/>
<circle cx="337" cy="230" r="5" fill="#E10600" fill-opacity="0.15"/>
<circle cx="12" cy="255" r="5" fill="#E10600" fill-opacity="0.15"/>
<circle cx="37" cy="255" r="5" fill="#E10600" fill-opacity="0.15"/>
<circle cx="62" cy="255" r="5" fill="#E10600" fill-opacity="0.15"/>
<circle cx="87" cy="255" r="5" fill="#E10600" fill-opacity="0.15"/>
<circle cx="112" cy="255" r="5" fill="#E10600" fill-opacity="0.15"/>
<circle cx="137" cy="255" r="5" fill="#E10600" fill-opacity="0.15"/>
<circle cx="162" cy="255" r="5" fill="#E10600" fill-opacity="0.15"/>
<circle cx="187" cy="255" r="5" fill="#E10600" fill-opacity="0.15"/>
<circle cx="212" cy="255" r="5" fill="#E10600" fill-opacity="0.15"/>
<circle cx="237" cy="255" r="5" fill="#E10600" fill-opacity="0.15"/>
<circle cx="262" cy="255" r="5" fill="#E10600" fill-opacity="0.15"/>
<circle cx="287" cy="255" r="5" fill="#E10600" fill-opacity="0.15"/>
<circle cx="312" cy="255" r="5" fill="#E10600" fill-opacity="0.15"/>
<circle cx="337" cy="255" r="5" fill="#E10600" fill-opacity="0.15"/>
<circle cx="12" cy="280" r="5" fill="#E10600" fill-opacity="0.15"/>
<circle cx="37" cy="280" r="5" fill="#E10600" fill-opacity="0.15"/>
<circle cx="62" cy="280" r="5" fill="#E10600" fill-opacity="0.15"/>
<circle cx="87" cy="280" r="5" fill="#E10600" fill-opacity="0.15"/>
<circle cx="112" cy="280" r="5" fill="#E10600" fill-opacity="0.15"/>
<circle cx="137" cy="280" r="5" fill="#E10600" fill-opacity="0.15"/>
<circle cx="162" cy="280" r="5" fill="#E10600" fill-opacity="0.15"/>
<circle cx="187" cy="280" r="5" fill="#E10600" fill-opacity="0.15"/>
<circle cx="212" cy="280" r="5" fill="#E10600" fill-opacity="0.15"/>
<circle cx="237" cy="280" r="5" fill="#E10600" fill-opacity="0.15"/>
<circle cx="262" cy="280" r="5" fill="#E10600" fill-opacity="0.15"/>
<circle cx="287" cy="280" r="5" fill="#E10600" fill-opacity="0.15"/>
<circle cx="312" cy="280" r="5" fill="#E10600" fill-opacity="0.15"/>
<circle cx="337" cy="280" r="5" fill="#E10600" fill-opacity="0.15"/>
<circle cx="12" cy="305" r="5" fill="#E10600" fill-opacity="0.15"/>
<circle cx="37" cy="305" r="5" fill="#E10600" fill-opacity="0.15"/>
<circle cx="62" cy="305" r="5" fill="#E10600" fill-opacity="0.15"/>
<circle cx="87" cy="305" r="5" fill="#E10600" fill-opacity="0.15"/>
<circle cx="112" cy="305" r="5" fill="#E10600" fill-opacity="0.15"/>
<circle cx="137" cy="305" r="5" fill="#E10600" fill-opacity="0.15"/>
<circle cx="162" cy="305" r="5" fill="#E10600" fill-opacity="0.15"/>
<circle cx="187" cy="305" r="5" fill="#E10600" fill-opacity="0.15"/>
<circle cx="212" cy="305" r="5" fill="#E10600" fill-opacity="0.15"/>
<circle cx="237" cy="305" r="5" fill="#E10600" fill-opacity="0.15"/>
<circle cx="262" cy="305" r="5" fill="#E10600" fill-opacity="0.15"/>
<circle cx="287" cy="305" r="5" fill="#E10600" fill-opacity="0.15"/>
<circle cx="312" cy="305" r="5" fill="#E10600" fill-opacity="0.15"/>
<circle cx="337" cy="305" r="5" fill="#E10600" fill-opacity="0.15"/>
<circle cx="12" cy="330" r="5" fill="#E10600" fill-opacity="0.15"/>
<circle cx="37" cy="330" r="5" fill="#E10600" fill-opacity="0.15"/>
<circle cx="62" cy="330" r="5" fill="#E10600" fill-opacity="0.15"/>
<circle cx="87" cy="330" r="5" fill="#E10600" fill-opacity="0.15"/>
<circle cx="112" cy="330" r="5" fill="#E10600" fill-opacity="0.15"/>
<circle cx="137" cy="330" r="5" fill="#E10600" fill-opacity="0.15"/>
<circle cx="162" cy="330" r="5" fill="#E10600" fill-opacity="0.15"/>
<circle cx="187" cy="330" r="5" fill="#E10600" fill-opacity="0.15"/>
<circle cx="212" cy="330" r="5" fill="#E10600" fill-opacity="0.15"/>
<circle cx="237" cy="330" r="5" fill="#E10600" fill-opacity="0.15"/>
<circle cx="262" cy="330" r="5" fill="#E10600" fill-opacity="0.15"/>
<circle cx="287" cy="330" r="5" fill="#E10600" fill-opacity="0.15"/>
<circle cx="312" cy="330" r="5" fill="#E10600" fill-opacity="0.15"/>
<circle cx="337" cy="330" r="5" fill="#E10600" fill-opacity="0.15"/>
<circle cx="12" cy="355" r="5" fill="#E10600" fill-opacity="0.15"/>
<circle cx="37" cy="355" r="5" fill="#E10600" fill-opacity="0.15"/>
<circle cx="62" cy="355" r="5" fill="#E10600" fill-opacity="0.15"/>
<circle cx="87" cy="355" r="5" fill="#E10600" fill-opacity="0.15"/>
<circle cx="112" cy="355" r="5" fill="#E10600" fill-opacity="0.15"/>
<circle cx="137" cy="355" r="5" fill="#E10600" fill-opacity="0.15"/>
<circle cx="162" cy="355" r="5" fill="#E10600" fill-opacity="0.15"/>
<circle cx="187" cy="355" r="5" fill="#E10600" fill-opacity="0.15"/>
<circle cx="212" cy="355" r="5" fill="#E10600" fill-opacity="0.15"/>
<circle cx="237" cy="355" r="5" fill="#E10600" fill-opacity="0.15"/>
<circle cx="262" cy="355" r="5" fill="#E10600" fill-opacity="0.15"/>
<circle cx="287" cy="355" r="5" fill="#E10600" fill-opacity="0.15"/>
<circle cx="312" cy="355" r="5" fill="#E10600" fill-opacity="0.15"/>
<circle cx="337" cy="355" r="5" fill="#E10600" fill-opacity="0.15"/>
<circle cx="12" cy="380" r="5" fill="#E10600" fill-opacity="0.15"/>
<circle cx="37" cy="380" r="5" fill="#E10600" fill-opacity="0.15"/>
<circle cx="62" cy="380" r="5" fill="#E10600" fill-opacity="0.15"/>
<circle cx="87" cy="380" r="5" fill="#E10600" fill-opacity="0.15"/>
<circle cx="112" cy="380" r="5" fill="#E10600" fill-opacity="0.15"/>
<circle cx="137" cy="380" r="5" fill="#E10600" fill-opacity="0.15"/>
<circle cx="162" cy="380" r="5" fill="#E10600" fill-opacity="0.15"/>
<circle cx="187" cy="380" r="5" fill="#E10600" fill-opacity="0.15"/>
<circle cx="212" cy="380" r="5" fill="#E10600" fill-opacity="0.15"/>
<circle cx="237" cy="380" r="5" fill="#E10600" fill-opacity="0.15"/>
<circle cx="262" cy="380" r="5" fill="#E10600" fill-opacity="0.15"/>
<circle cx="287" cy="380" r="5" fill="#E10600" fill-opacity="0.15"/>
<circle cx="312" cy="380" r="5" fill="#E10600" fill-opacity="0.15"/>
<circle cx="337" cy="380" r="5" fill="#E10600" fill-opacity="0.15"/>
<circle cx="12" cy="405" r="5" fill="#E10600" fill-opacity="0.15"/>
<circle cx="37" cy="405" r="5" fill="#E10600" fill-opacity="0.15"/>
<circle cx="62" cy="405" r="5" fill="#E10600" fill-opacity="0.15"/>
<circle cx="87" cy="405" r="5" fill="#E10600" fill-opacity="0.15"/>
<circle cx="112" cy="405" r="5" fill="#E10600" fill-opacity="0.15"/>
<circle cx="137" cy="405" r="5" fill="#E10600" fill-opacity="0.15"/>
<circle cx="162" cy="405" r="5" fill="#E10600" fill-opacity="0.15"/>
<circle cx="187" cy="405" r="5" fill="#E10600" fill-opacity="0.15"/>
<circle cx="212" cy="405" r="5" fill="#E10600" fill-opacity="0.15"/>
<circle cx="237" cy="405" r="5" fill="#E10600" fill-opacity="0.15"/>
<circle cx="262" cy="405" r="5" fill="#E10600" fill-opacity="0.15"/>
<circle cx="287" cy="405" r="5" fill="#E10600" fill-opacity="0.15"/>
<circle cx="312" cy="405" r="5" fill="#E10600" fill-opacity="0.15"/>
<circle cx="337" cy="405" r="5" fill="#E10600" fill-opacity="0.15"/>
<circle cx="12" cy="430" r="5" fill="#E10600" fill-opacity="0.15"/>
<circle cx="37" cy="430" r="5" fill="#E10600" fill-opacity="0.15"/>
<circle cx="62" cy="430" r="5" fill="#E10600" fill-opacity="0.15"/>
<circle cx="87" cy="430" r="5" fill="#E10600" fill-opacity="0.15"/>
<circle cx="112" cy="430" r="5" fill="#E10600" fill-opacity="0.15"/>
<circle cx="137" cy="430" r="5" fill="#E10600" fill-opacity="0.15"/>
<circle cx="162" cy="430" r="5" fill="#E10600" fill-opacity="0.15"/>
<circle cx="187" cy="430" r="5" fill="#E10600" fill-opacity="0.15"/>
<circle cx="212" cy="430" r="5" fill="#E10600" fill-opacity="0.15"/>
<circle cx="237" cy="430" r="5" fill="#E10600" fill-opacity="0.15"/>
<circle cx="262" cy="430" r="5" fill="#E10600" fill-opacity="0.15"/>
<circle cx="287" cy="430" r="5" fill="#E10600" fill-opacity="0.15"/>
<circle cx="312" cy="430" r="5" fill="#E10600" fill-opacity="0.15"/>
<circle cx="337" cy="430" r="5" fill="#E10600" fill-opacity="0.15"/>
<circle cx="12" cy="455" r="5" fill="#E10600" fill-opacity="0.15"/>
<circle cx="37" cy="455" r="5" fill="#E10600" fill-opacity="0.15"/>
<circle cx="62" cy="455" r="5" fill="#E10600" fill-opacity="0.15"/>
<circle cx="87" cy="455" r="5" fill="#E10600" fill-opacity="0.15"/>
<circle cx="112" cy="455" r="5" fill="#E10600" fill-opacity="0.15"/>
<circle cx="137" cy="455" r="5" fill="#E10600" fill-opacity="0.15"/>
<circle cx="162" cy="455" r="5" fill="#E10600" fill-opacity="0.15"/>
<circle cx="187" cy="455" r="5" fill="#E10600" fill-opacity="0.15"/>
<circle cx="212" cy="455" r="5" fill="#E10600" fill-opacity="0.15"/>
<circle cx="237" cy="455" r="5" fill="#E10600" fill-opacity="0.15"/>
<circle cx="262" cy="455" r="5" fill="#E10600" fill-opacity="0.15"/>
<circle cx="287" cy="455" r="5" fill="#E10600" fill-opacity="0.15"/>
<circle cx="312" cy="455" r="5" fill="#E10600" fill-opacity="0.15"/>
<circle cx="337" cy="455" r="5" fill="#E10600" fill-opacity="0.15"/>
<circle cx="12" cy="480" r="5" fill="#E10600" fill-opacity="0.15"/>
<circle cx="37" cy="480" r="5" fill="#E10600" fill-opacity="0.15"/>
<circle cx="62" cy="480" r="5" fill="#E10600" fill-opacity="0.15"/>
<circle cx="87" cy="480" r="5" fill="#E10600" fill-opacity="0.15"/>
<circle cx="112" cy="480" r="5" fill="#E10600" fill-opacity="0.15"/>
<circle cx="137" cy="480" r="5" fill="#E10600" fill-opacity="0.15"/>
<circle cx="162" cy="480" r="5" fill="#E10600" fill-opacity="0.15"/>
<circle cx="187" cy="480" r="5" fill="#E10600" fill-opacity="0.15"/>
<circle cx="212" cy="480" r="5" fill="#E10600" fill-opacity="0.15"/>
<circle cx="237" cy="480" r="5" fill="#E10600" fill-opacity="0.15"/>
<circle cx="262" cy="480" r="5" fill="#E10600" fill-opacity="0.15"/>
<circle cx="287" cy="480" r="5" fill="#E10600" fill-opacity="0.15"/>
<circle cx="312" cy="480" r="5" fill="#E10600" fill-opacity="0.15"/>
<circle cx="337" cy="480" r="5" fill="#E10600" fill-opacity="0.15"/>
</svg>
