<svg width="67" height="67" viewBox="0 0 67 67" fill="none" xmlns="http://www.w3.org/2000/svg">
<g opacity="0.5">
<path d="M65.987 21.3674H62.9115L58.1656 23.3534L41.8809 43.6107L43.4991 45.6328H48.1923C48.4994 45.6328 48.7899 45.4932 48.9819 45.2533L66.7765 23.0101C67.3061 22.3482 66.8349 21.3674 65.987 21.3674Z" fill="#D3D3D3"/>
<path d="M40.7434 33.5H28.0403C25.5832 33.5 23.2592 34.6169 21.7243 36.5356L15.7608 43.9899C15.2312 44.652 15.7026 45.6326 16.5504 45.6326H24.3191C24.6262 45.6326 24.9167 45.4929 25.1087 45.2531L28.0405 41.5883H35.8905C36.1976 41.5883 36.4881 41.4487 36.68 41.2089L41.5331 35.1425C42.0625 34.4807 41.5912 33.5 40.7434 33.5Z" fill="#F5F5F5"/>
<path d="M50.4496 21.3674H28.0404C21.8975 21.3674 16.0878 24.1597 12.2503 28.9566L0.223469 43.9902C-0.306191 44.6522 0.165232 45.6328 1.01304 45.6328H8.78174C9.08883 45.6328 9.37934 45.4932 9.57131 45.2533L18.5665 34.0093C20.8689 31.1313 24.3549 29.4558 28.0405 29.4558H45.5967C45.9038 29.4558 46.1943 29.3161 46.3862 29.0763L51.2393 23.0099C51.7687 22.3482 51.2974 21.3674 50.4496 21.3674Z" fill="#F5F5F5"/>
<path d="M57.4287 21.7469L39.6341 43.9902C39.1045 44.6522 39.5759 45.6328 40.4237 45.6328H43.4992L62.9115 21.3674H58.2183C57.9112 21.3674 57.6207 21.5071 57.4287 21.7469Z" fill="#F5F5F5"/>
</g>
</svg>
