<svg width="50" height="50" viewBox="0 0 50 50" fill="none" xmlns="http://www.w3.org/2000/svg">
<path d="M49.2441 15.9457H46.9489L43.4072 17.4278L31.2544 32.5452L32.462 34.0542H35.9644C36.1936 34.0542 36.4104 33.95 36.5537 33.7711L49.8332 17.1716C50.2285 16.6776 49.8768 15.9457 49.2441 15.9457Z" fill="#D40000"/>
<path d="M30.4056 25H20.9257C19.092 25 17.3577 25.8335 16.2123 27.2654L11.7619 32.8283C11.3666 33.3224 11.7184 34.0541 12.3511 34.0541H18.1487C18.3778 34.0541 18.5946 33.9499 18.7379 33.771L20.9258 31.0361H26.784C27.0132 31.0361 27.23 30.9318 27.3732 30.7529L30.9949 26.2257C31.39 25.7319 31.0383 25 30.4056 25Z" fill="#F02E0E"/>
<path d="M37.649 15.9457H20.9257C16.3414 15.9457 12.0058 18.0295 9.14208 21.6093L0.166798 32.8284C-0.22847 33.3225 0.123338 34.0542 0.756029 34.0542H6.55357C6.78274 34.0542 6.99954 33.95 7.1428 33.7711L13.8556 25.38C15.5738 23.2322 18.1753 21.9818 20.9258 21.9818H34.0274C34.2566 21.9818 34.4734 21.8776 34.6166 21.6986L38.2383 17.1715C38.6334 16.6776 38.2817 15.9457 37.649 15.9457Z" fill="#F02E0E"/>
<path d="M42.8573 16.2289L29.5777 32.8284C29.1825 33.3225 29.5343 34.0542 30.167 34.0542H32.4621L46.9489 15.9457H43.4465C43.2174 15.9457 43.0006 16.05 42.8573 16.2289Z" fill="#F02E0E"/>
</svg>
