<svg id="Réteg_1" data-name="Réteg 1" xmlns="http://www.w3.org/2000/svg" viewBox="0 0 457.29 457.38"><defs><style>.cls-1{fill:#fff;}</style></defs><title>alfa_romeo</title><path class="cls-1" d="M81.47,379.93V369c.18-3.65.37-7.29.55-10.94l1-11q.76-5.46,1.52-10.91,1.05-5.49,2.11-11l2.7-11,7.21-21.88,4.65-11,.7-1.65,4.45-9.3,6-10.91,6.89-11.05,4-5.93,3.73-5q8.76-11.19,18.41-21.61l11-10.78q10.55-9,21.62-17.39l7.25-4.93a13.86,13.86,0,0,0,3.68-2.32q5.91-3.36,11.81-6.73c8.36-4.78,17.27-8.39,26-12.4l6.72-2.41,10.82-3.62,11-2.92,8.76-2.08a3.26,3.26,0,0,0,2.22-.42l11-1.82,10.95-1.28,11-.85,11.5-.21,11,.23,10.95.92,11,1.27L354.51,150l21.9,5.45,11,3.62,21.93,9.26,7.68,3.85A22.08,22.08,0,0,0,422,174.9l11,6.57a7.36,7.36,0,0,0,2.69,1.78L443.9,189a260.29,260.29,0,0,1,31.79,27.92c6.21,6.54,11.83,13.58,17.56,20.52l5.47,7.64a11.7,11.7,0,0,0,2.24,3.32c4.46,7.24,8.83,14.53,12.84,22q5.21,10.8,9.78,21.89,2,5.49,3.94,11,3,11,6,21.9L535.57,336q.81,5.49,1.61,11a259.18,259.18,0,0,1,1.53,32.72c-.16,7.38-.89,14.72-1.54,22.06q-.79,5.49-1.6,11-1.05,5.43-2.09,10.87-3,11-6,21.9-2,5.54-3.94,11.06-4.56,11.06-9.78,21.81c-3.86,7.25-8.09,14.29-12.38,21.28a16.6,16.6,0,0,0-2.65,4l-5,7c-5.51,6.79-11,13.63-16.94,20a261,261,0,0,1-33.39,29.46l-7.73,5.33a12.2,12.2,0,0,0-3.45,2.22L422,573.84a34.67,34.67,0,0,0-6.08,3.3,38.59,38.59,0,0,0-6.51,3.29l-21.94,9.21-10.92,3.55-22,5.52-10.88,2L332.7,602l-11,.87-10.93.19-11.48-.16-11-.86-10.95-1.24-10.86-1.91-2.28-.34a62.71,62.71,0,0,0-8.79-2.07l-10.91-3-11-3.63L212.18,581q-11.7-6-23-12.63a18,18,0,0,0-4.38-2.77,47.27,47.27,0,0,0-6.52-4.51c-1.73-1.32-3.44-2.67-5.19-4A260.92,260.92,0,0,1,145.59,533q-9.61-10.47-18.42-21.61a28.8,28.8,0,0,0-3.75-5.09,37.42,37.42,0,0,0-4-5.86q-3.46-5.56-6.92-11.12-3-5.43-6-10.87l-4.5-9.29a4.5,4.5,0,0,0-1-2.35l-4.26-10.31-7.25-21.86q-1.36-5.49-2.72-11-1.05-5.49-2.09-11-.78-5.44-1.57-10.9-.51-5.49-1-11C81.84,387.23,81.66,383.58,81.47,379.93ZM296.67,171.7v32.85c0,1.36,0,2.74-.14,4.08-.28,2.19.52,3,2.68,2.46,1.62,0,3.25.1,4.87.11,6.4,0,6.4,0,6-6.63.55-2.56-.62-5.27.65-7.77l5.79,7.85c1.61,2.24,2.81,4.81,5.14,6.48a71.18,71.18,0,0,0,11,1.61l6.7,1.19-6.68-8.31a1.66,1.66,0,0,0-.89-1.15l-1.69-2.42c-2-2.86-4.58-5.27-6.15-8.43,5.58-1.54,8.84-5.2,9.29-10.42a12.35,12.35,0,0,0-4.42-12,13.58,13.58,0,0,0-7-3.63c-3.62-1.05-7.33-.92-11-.77l-11.5,0c-2-.56-3,0-2.67,2.29C296.67,169.93,296.63,170.82,296.67,171.7Zm202,138.11c1.09-.38,2.2-.71,3.27-1.14,3.95-1.57,3.95-1.59,1.85-5.52-2.27-5.53-4.52-11.06-6.82-16.57-2.74-6.58-2.76-6.57-9.27-3.1a100.61,100.61,0,0,0-11.82,4.76,56,56,0,0,0-8.46,3.46,2.09,2.09,0,0,0-1.65.65c-2.11.81-4.24,1.58-6.34,2.43-6.09,2.49-6.09,2.5-3,8.43,2.06,4.94,4.07,9.89,6.18,14.81,2.53,5.9,2.56,5.89,8.46,3.35,5.12-2.2,5.12-2.2,2.39-7.21-.59-1.49-1.14-3-1.77-4.46-1.63-3.82-1.64-3.81,1.76-5.84,1.17-.47,1.71,0,2.18,1.13,1.4,3.34,2.92,6.63,4.41,9.93.36.8.57,1.7,1.92,1.07,2.37-1.12,4.83-2.06,7.27-3,1.19-.46,1.13-1.11.66-2.09-1.31-2.77-2.55-5.56-3.82-8.35-1.15-2-.6-3.47,1.57-4.3,1.63-.52,2.72-.21,3.21,1.67a20.32,20.32,0,0,0,1.53,3.37c.69,1.76,1.51,3.48,2,5.29C495.3,311.26,496.68,311.47,498.7,309.81Zm-60.27-39.48c-1.11.8-.81,1.59-.11,2.52,1.7,2.24,3.33,4.53,5,6.8l2.67,4.13,16.93-24.43a38.88,38.88,0,0,0,4-5.93,12.81,12.81,0,0,0,2.74-3.9c3.62-4.33,3.62-4.33.2-8.45-.81-1-1.63-1.95-2.47-2.91-3.09-3.52-3.1-3.52-7.47-1.53-.08,0-.13.13-.19.19a21.62,21.62,0,0,0-4.91,1.93l-10.94,4.36a1.72,1.72,0,0,1-.5-.11l-.44-.34q3.09-8,6.17-16.06c2.37-5.17,2.38-5.18-2-8.68-.84-.67-1.76-1.26-2.64-1.89-3.06-3-3.07-3-6.36-.69-1.77,1.26-3.52,2.56-5.28,3.84L423,225.93l-1.1.77q-8.85,6-17.72,12c-1,.66-1.21,1.2-.09,2,1.56,1.07,3.05,2.24,4.57,3.37,1.32,1.1,2.73,2.11,3.95,3.32s2.05.86,3.22-.08c4.47-3.61,9-7.13,13.57-10.64.71-.55,1.33-1.41,2.58-1.52-.25.93-.43,1.61-.61,2.3L427,248.4c-.91,2.15-1.71,4.36-2.78,6.43s-.71,3.55,1.37,4.6c1.05,1.15,1.75,2.9,3.9,2,4.77-2,9.57-4,14.35-6l6.32-2.34c.1.12.2.23.31.34l-3.93,6a13.38,13.38,0,0,0-2.73,3.74A56.27,56.27,0,0,0,438.43,270.33ZM119.89,291.48c-3.89,8.65-4.81,5.88,3.34,9.69l22,10.18,7.14,3.32c.87.45,1.78.85,2.62,1.36s1.59.46,2.09-.63c1.9-4.07,3.85-8.11,5.79-12.17,1.83-3.61,3.62-7.25,5.52-10.82.84-1.57.21-2.12-1.23-2.39-.76-.46-1.5-1-2.29-1.38-5.83-3-5.84-3-8.68,3a1.22,1.22,0,0,0-.62,1.07c-1.22,2-2,4.72-3.78,5.76-2.11,1.23-4.13-1.79-6.5-2-7.2-3.69-14.55-7-22-10.24-.66-.69-1.07-.36-1.37.34C121.24,288.21,120.57,289.85,119.89,291.48Zm91.72-47.81c1.56-1.1,3.21-2.09,4.65-3.32,1-.87,2.78-1.1,2.86-2.91-.31-1.59-.52-3.22-1-4.78a2.59,2.59,0,0,1,1.47-3.47c3.58-1.93,7.07-4.06,10.56-6.15.88-.53,1.68-1,2.69-.38,3.24,3.63,6.88,4.84,11.23,1.88a8.24,8.24,0,0,1,1.19-.59l8.06-3.17-19.24-14.1a8.65,8.65,0,0,0-2.87-2.11,74.06,74.06,0,0,0-8.78-6.57,48.7,48.7,0,0,0-6.57-4.95c-1.74-2.12-3.63-2.61-5.92-.74a14.43,14.43,0,0,1-2.66,1.35c-6.68,3.39-6.68,3.39-5.53,10.89q.6,5.52,1.21,11a93.24,93.24,0,0,0,1.32,10.92,68.19,68.19,0,0,0,1.2,10.94,69.27,69.27,0,0,0,1.11,10.15C208.54,246.11,210.08,244.89,211.61,243.67ZM509.84,380.1A21.22,21.22,0,0,0,516.62,369a24.78,24.78,0,0,0,1.07-11,25.35,25.35,0,0,0-3.14-10.94,15.18,15.18,0,0,0-4.81-6.28c-5.53-5-12.06-6.42-19.28-5.25a3.64,3.64,0,0,0-2.74.57,6.39,6.39,0,0,0-1.32.22C476.43,340.09,472,347.79,471,358a21.15,21.15,0,0,0,1.26,11,17.32,17.32,0,0,0,3.86,7.68,8.3,8.3,0,0,0,2.85,3.23,17.53,17.53,0,0,0,8.69,5.22,20.52,20.52,0,0,0,11,.61A19.23,19.23,0,0,0,509.84,380.1ZM402.31,193.57a14.66,14.66,0,0,0-3.8-5.73c-5.93-6.46-13.34-9.19-22-8.77a23.63,23.63,0,0,0-21.74,14.55,5.49,5.49,0,0,0-.81,2.7c-2.52,7.64.3,13.93,5,19.74a19.17,19.17,0,0,0,5.94,5.54,22.2,22.2,0,0,0,11.59,4.8,20.91,20.91,0,0,0,11-.43,10.6,10.6,0,0,0,1.59-.29c9.15-3,14.82-10.66,15.62-21.13A17.87,17.87,0,0,0,402.31,193.57ZM376.47,514.68a16.75,16.75,0,0,0,5-2.62,23.75,23.75,0,0,0,6-3.38,102.56,102.56,0,0,0,15.14-10.23,142.5,142.5,0,0,0,29.64-30.86l.73-1.06a64.29,64.29,0,0,0,6.48-9.92,111.85,111.85,0,0,0,10.53-21.29,68.61,68.61,0,0,0,4.1-11.46,19.21,19.21,0,0,0,1.35-5,113.41,113.41,0,0,0,4.83-28,61.56,61.56,0,0,0,.5-10.94,58.41,58.41,0,0,0-.45-11A60.11,60.11,0,0,0,459.12,358a104.38,104.38,0,0,0-4.89-21.94,55,55,0,0,0-3.79-10.95,109.6,109.6,0,0,0-10.62-21.93,63.37,63.37,0,0,0-6.35-9.85,2.69,2.69,0,0,0-1.12-1.58,120.53,120.53,0,0,0-15.06-18,136.58,136.58,0,0,0-29.82-23.29,105,105,0,0,0-22-10.86,29.93,29.93,0,0,0-7.16-2.65,108.43,108.43,0,0,0-25.71-6.21,28.52,28.52,0,0,0-7.69-1l-1.11-.1a3.39,3.39,0,0,0-2.15-.24,63.94,63.94,0,0,0-11-.36,67.72,67.72,0,0,0-11.48.31,71.8,71.8,0,0,0-11,1.18,71.63,71.63,0,0,0-10.88,2,113.65,113.65,0,0,0-22,6.73,67.52,67.52,0,0,0-10.88,4.78,33.71,33.71,0,0,0-7.12,3.77,10.94,10.94,0,0,0-3.84,2.18c-1.87,1.1-3.81,2.12-5.61,3.32-10,6.64-19.31,14-27.25,23a20.41,20.41,0,0,0-3.89,4.25,118.55,118.55,0,0,0-16.3,22.55,14.79,14.79,0,0,0-2.36,4.21,32,32,0,0,0-3.48,6.63,58.51,58.51,0,0,0-4.74,11A99.67,99.67,0,0,0,163.18,347a52.82,52.82,0,0,0-2,11,47,47,0,0,0-1.14,11,46.68,46.68,0,0,0-.42,10.95,49.13,49.13,0,0,0,.46,11,51,51,0,0,0,1.18,11,50.63,50.63,0,0,0,2.1,11A106.22,106.22,0,0,0,170,434.67a115.07,115.07,0,0,0,11.27,22.69,116.4,116.4,0,0,0,15.5,21.14,17.52,17.52,0,0,0,3.71,4.07,41.34,41.34,0,0,0,7,7,19.57,19.57,0,0,0,4.07,3.69,118.52,118.52,0,0,0,21.89,15.8,107.54,107.54,0,0,0,21.88,10.67,115.77,115.77,0,0,0,21.91,6.78,60.3,60.3,0,0,0,11,1.91,50.86,50.86,0,0,0,10.93,1.22,58,58,0,0,0,11.56.37,48.14,48.14,0,0,0,11-.46,50.22,50.22,0,0,0,10.93-1.21,51.21,51.21,0,0,0,11-2.1,102.57,102.57,0,0,0,22.64-7.07A49.17,49.17,0,0,0,376.47,514.68ZM122.37,373.56l11.9,6.33.09.15h.18a111.56,111.56,0,0,0,10.7,5.8c1.26,1.08,1.46.43,1.41-.82-.11-3.08-.54-6.22-.16-9.24.53-4.23-1.24-6.38-5.1-7.32l-.53-.09a2.32,2.32,0,0,1-1.1-2.47c.2-2.63.26-5.26.38-7.9-.63-5.26,1.29-8.39,7-8.45,1.08,0,1.44-.74,1.57-1.8.5-3.88,1.33-7.72,1.48-11.65.35-.64.74-1.42.23-2s-1.18,0-1.76.22l-14.44,4.87a90.63,90.63,0,0,0-10.9,3.55c-6,1.93-12,3.9-18.06,5.77a2,2,0,0,0-1.53,1.94c-.25,2.52-.48,5-.72,7.55-.17,1.9-1.81,4.1.62,5.55,2.79,1.67,5.76,3,8.65,4.56a7,7,0,0,0,2.77,1.48Zm61.81-114.22a46.52,46.52,0,0,0-6.11-5.37c-.89-.83-.9-1.51,0-2.44,2.33-2.3,4.51-4.76,6.81-7.09.94-.95,1.18-1.63,0-2.6-2.12-1.71-4.12-3.56-6.17-5.35-.93-.74-1.21.22-1.62.66-2.09,2.24-4.25,4.43-6.16,6.81-1.25,1.56-2.29,2-3.71.38-2.57-2.87-2.57-2.87,0-5.78.91-1,1.87-2,2.78-3,4.57-5.09,4.57-5.1-1-9.2-2.53-2.65-2.51-2.63-4.77,0-5,5.81-9.95,11.63-15,17.37-1.13,1.28-1.22,1.94.17,3.16,9.19,8,18.3,16.16,27.42,24.28,3.73,3.32,3.71,3.35,6.79-.83,6.47-6.3,6.47-6.3.8-10.92A.61.61,0,0,0,184.18,259.34Z" transform="translate(-81.47 -145.64)"/><path class="cls-1" d="M185.87,445A223.45,223.45,0,0,1,176.55,423l-2.88-10.23q-1.11-5.48-2.21-10.95l-1.26-11c-.07-1.27,0-2.55-.22-3.8-.26-1.75.26-2.44,2.13-2.31s4-.05,6-.09h33.46a90.59,90.59,0,0,0,10.93,0c4.41.34,4.41.34,4.48,4.9,0,.45.08.89.13,1.34a90.75,90.75,0,0,0,0,10.94v11a90.59,90.59,0,0,0,0,10.93v11a90.75,90.75,0,0,0,0,10.94v11a90.59,90.59,0,0,0,0,10.93v11a126.35,126.35,0,0,0,0,13.2c-1.14.54-1.52-.88-2.43-1l-3.8-3a5,5,0,0,0-2.14-1.82L217,484.59a7.07,7.07,0,0,0-2.52-2.28q-2-1.9-3.89-3.82l-9.93-11h0A206.28,206.28,0,0,1,185.87,445Z" transform="translate(-81.47 -145.64)"/><path class="cls-1" d="M443.31,335c.1.4.19.8.29,1.21q1.56,5.43,3.11,10.85,1.08,5.47,2.15,10.95.6,5.49,1.19,11c.15,3.65.31,7.3.46,10.94l-.48,11q-.61,5.47-1.24,10.95l-2.22,10.94-3.18,11c-2.81,7.44-5.88,14.76-9.42,21.89a3.64,3.64,0,0,0-1.12,2q-2.72,4.47-5.42,8.95A187.65,187.65,0,0,1,410,478.14l-1,1a186.92,186.92,0,0,1-21.47,17.52,26.08,26.08,0,0,0-5,3.18,35.4,35.4,0,0,0-6,3.4A230.76,230.76,0,0,1,353.85,513l-10.23,2.93-11,2.23L321.7,519.5l-11,.41c-1.34-2.72-.09-5.66-.69-8.44v-263c0-2.27.24-4.56.07-6.81-.15-2,.66-2.39,2.47-2.32a196.13,196.13,0,0,1,20.1,1.8l10.87,2.19,11,3.14a209.51,209.51,0,0,1,21.36,9.16,206.69,206.69,0,0,1,22.46,14.85h0l11,9.9a1.49,1.49,0,0,0,1,1c6.51,7.21,12.85,14.55,18,22.86,2,3.32,4,6.69,6,10l5.23,10.89Q441.41,330,443.31,335Zm-88.76-41.17h21.92c4.89,0,9.78,0,14.67.17,1.93.07,2.44-.49,2.35-2.41-.17-3.85-.05-3.86-3.9-3.84-.72,0-1.44.08-2.16.12H354.55c-.9,0-1.8-.12-2.7-.12-4.5,0-4.5,0-4.15,4.49-.32,1.06-.16,1.75,1.19,1.69C350.78,293.87,352.67,293.87,354.55,293.83Zm0-14.34c-1.78-.06-3.57-.09-5.35-.2-1.57-.1-1.88.66-1.49,2-.33,4.28-.33,4.29,3.89,4.28,1,0,2-.09,3-.13a86.65,86.65,0,0,0,10.93,0,89.71,89.71,0,0,0,11,0,86.5,86.5,0,0,0,10.92,0c7.51.32,6,.59,5.91-4.14.37-1.34.07-2.11-1.53-2-1.44.12-2.89.14-4.34.2a64.93,64.93,0,0,0-11,0,64.23,64.23,0,0,0-10.92,0A64.49,64.49,0,0,0,354.55,279.49Zm11,60.88h21.92c3.64.41,7.33-.42,10.94.55a8.79,8.79,0,0,1,4.5,6.14c.21,5.84-2.87,9.69-9.75,9.52-12.94-.33-25.89-.14-38.84-.07-3.74,0-7.45.44-10.8,2.37A21.37,21.37,0,0,0,332.68,369c-6.53,10.48-4.29,25.61,4.87,32.87a13.68,13.68,0,0,0,5.95,3.52,20.8,20.8,0,0,0,11,1.57,68.22,68.22,0,0,0,11,0,67.73,67.73,0,0,0,10.94,0,68.22,68.22,0,0,0,11,0,71.34,71.34,0,0,0,10.94,0c3.43,1,4.16,2,4.35,5.83a5.14,5.14,0,0,1-4.32,3.56h-11a90.42,90.42,0,0,0-10.92,0h-11a90.42,90.42,0,0,0-10.92,0,17.64,17.64,0,0,0-18.68,18.38,15.06,15.06,0,0,0,3.7,11,9.58,9.58,0,0,0,4,3.73,15.74,15.74,0,0,0,11,2.86,67.73,67.73,0,0,0,10.94,0,68.22,68.22,0,0,0,11,0l10.38.47a5.23,5.23,0,0,1,2,3.81,6.65,6.65,0,0,1-2,2.73c-3.4,1-6.91.14-10.34.6h-11a10.71,10.71,0,0,0-10.47,7,11.13,11.13,0,0,0,1.72,12.12,10.26,10.26,0,0,0,8.74,4.35c3.64.57,7.46-.79,11,1a4.32,4.32,0,0,1,1.32,2.33c.25,2.48,1.55,1.89,2.9,1,2.12-1.38,3-4.47,2.22-7.33s-3.05-5-5.71-5c-3.9-.08-7.8,0-11.7.06-.54-.05-1.09-.11-1.63-.14-2.31-.12-3.68-1.46-3.61-3.63s1.64-3.34,3.92-3.25c.64,0,1.28,0,1.91,0,6.73-.17,13.48.37,20.2-.38l1.11-.05c6.48-.94,10.18-4.94,10.58-11.44a12.61,12.61,0,0,0-3.87-11,10.59,10.59,0,0,0-6.71-4.22c-3.62-.86-7.28-.52-10.94-.36a84.12,84.12,0,0,0-11,0,79.59,79.59,0,0,0-10.92,0c-6.36-.54-7.16-1.32-6.39-6.24,1.55-2.4,4.09-2,6.38-2.24a80,80,0,0,0,10.95,0,77.24,77.24,0,0,0,11,0,80,80,0,0,0,10.95,0,62.68,62.68,0,0,0,11-.07A19.32,19.32,0,0,0,410,428.74a13.12,13.12,0,0,0,4.87-4.4,19.46,19.46,0,0,0,4.89-11.53,18.8,18.8,0,0,0-.91-11c-2.33-8.69-10.33-14.53-20.44-14.93-3.64-.56-7.29-.26-10.93-.17H354.55c-5.15-.36-6.55-2-5.67-6.68,1.19-2.36,3.43-2.61,5.68-2.83a83.51,83.51,0,0,0,11,0,83.51,83.51,0,0,0,11,0,83.51,83.51,0,0,0,11,0,81.81,81.81,0,0,0,11,0,23.43,23.43,0,0,0,11-2.29A28.57,28.57,0,0,0,419.41,369a6.27,6.27,0,0,0,2.59-2.19,27.83,27.83,0,0,0,7.18-8.81c6.64-10.43,6.86-21.55,3.5-33-.38-1.11-.69-2.25-1.15-3.33-3.27-7.72-9.15-13.14-15.64-18.14-2.52-1.94-4.41-2.31-6.56.12-3.48,1.68-7.25,1.14-10.91,1.44-2.92,0-5.84-.07-8.75-.14-1,0-1.61.12-1.74,1.43-.51,5.05-2.52,6.79-7.62,6.8-9.13,0-18.27.11-27.4,0-2.43,0-2.51,1.1-2.17,2.83.61,3.09,3.71,5.45,7.28,5.46,7.58,0,15.16.06,22.74,0,2.46,0,4.49.59,5.91,2.68.09.34.18.68.28,1,0,.91-.07,1.82-.1,2.72-1.1,2.56-3.09,3.49-5.8,3.34-1.51-.09-3,.06-4.55.1h-11c-2.53,0-5.07-.07-7.6-.13-3-.07-4.92,1.53-6.45,3.83a5.28,5.28,0,0,0-.63,4.95c.57,1.25,2.44.38,3.73.44Zm-25.4-26.22c-.08.71-.2,1.43-.23,2.14-.21,5-2.18,6.74-7.27,6.26a40.19,40.19,0,0,0-5.07-1.87c-2.21-.51-4.4-.26-5.77,1.93s-2,4.46-.23,6.79c1.53,2.59,3.58,3.43,6.59,2.49a48.29,48.29,0,0,0,4.49-1.86c5.37,0,6.63,1,7.39,6.05a42.26,42.26,0,0,0,0,4.64,8.81,8.81,0,0,1-4.17,8.87,42.25,42.25,0,0,0-4.6,3.87,2.38,2.38,0,0,0,3.07,3.59c1.27-.88,2.55-1.76,3.81-2.66,8.21-5.81,7.46-3.91,7.16-13.87-.19-6.43,2.09-11.11,8.09-14.1l-3.16-1.91a14,14,0,0,1-5-10.33l.15-8.19a4.33,4.33,0,0,0-1.8-3.79c-3-2.19-6.09-4.33-9.14-6.47-1.21-.85-2.36-.92-3.34.36a2.25,2.25,0,0,0,.36,3.39c1.8,1.51,3.7,2.91,5.56,4.36,1.9,1.89,3.29,4,3,6.86A25.06,25.06,0,0,0,340.13,314.15ZM364.41,273a3.81,3.81,0,0,0-3.85-3.78,3.8,3.8,0,1,0,0,7.6A3.84,3.84,0,0,0,364.41,273Zm-13.85,3.86a3.92,3.92,0,0,0,3.8-3.9,3.85,3.85,0,0,0-3.95-3.72,3.9,3.9,0,0,0-4,4A4,4,0,0,0,350.56,276.89Zm19.87,0a3.84,3.84,0,0,0,3.93-3.72,3.75,3.75,0,0,0-3.72-3.9,3.84,3.84,0,0,0-4.1,3.82A3.91,3.91,0,0,0,370.43,276.89Zm14.11-3.74a4,4,0,0,0-3.82-3.9,3.92,3.92,0,0,0-4.12,3.84,4,4,0,0,0,3.93,3.79A4.05,4.05,0,0,0,384.54,273.15Zm9.94.12a3.76,3.76,0,0,0-3.61-4,3.72,3.72,0,0,0-4.11,3.43,3.79,3.79,0,0,0,3.69,4.17A4,4,0,0,0,394.48,273.27Z" transform="translate(-81.47 -145.64)"/><path class="cls-1" d="M488.35,370.57l-2.23-2.25A16.19,16.19,0,0,1,483.9,358c2.72-7.15,6.63-9.91,12.64-8.8,4.91.91,7.18,4.53,8.75,8.8a14.59,14.59,0,0,1-2.36,10.15l-4.26,3.53A11.87,11.87,0,0,1,488.35,370.57Z" transform="translate(-81.47 -145.64)"/><path class="cls-1" d="M185.85,314.19a40.93,40.93,0,0,0,3.73-6.61,19,19,0,0,0,2.78-4.37l7.88-10.9.91-1.14,8.22-9.25a11.34,11.34,0,0,0,2.79-2.78l9.24-8.22,1.14-.94c1.56-.66,2.55-2.25,4.29-2.77.09,1.13.17,2.12.25,3.11v11a90.42,90.42,0,0,0,0,10.92v11a90.42,90.42,0,0,0,0,10.92v11a90.42,90.42,0,0,0,0,10.92v11c-.05.63-.12,1.27-.13,1.9,0,4.46,0,4.46-4.46,4.73H178.1c-1.81-.45-4.47.85-5.29-.63-.71-1.28.47-3.61.8-5.47a3.25,3.25,0,0,0,0-.54q1.5-5.44,3-10.9Q180.7,324.92,185.85,314.19Z" transform="translate(-81.47 -145.64)"/><path class="cls-1" d="M258.66,249l7.66-2.78,11-3.23,10.95-2.11,11-1.24c1.26,2.86.07,5.9.63,8.81V347c-.5,2.19.56,4.52-.63,6.64H266.34c-.45,0-.9-.09-1.35-.1-2.16-.06-4.91.68-6.33-.37s-.17-4.07-.61-6.18V259.35c0-1,0-2,.11-3C258.41,253.91,257.55,251.37,258.66,249Z" transform="translate(-81.47 -145.64)"/><path class="cls-1" d="M222.48,215.49c-.95.48-1.92.92-2.84,1.46-3.21,1.87-3.2,1.89-4.3-1.42-.53-2.71-1.06-5.42-1.68-8.56l8.14,5.9,1.73,2C223.17,215,222.83,215.26,222.48,215.49Z" transform="translate(-81.47 -145.64)"/><path class="cls-1" d="M266.35,513a27,27,0,0,0-6.05-2.13c-1.74-.62-2.34-1.78-2.2-3.66.17-2.24,0-4.51-.05-6.77V390.87a34.66,34.66,0,0,0,.08-3.81c-.15-1.72.33-2.45,2.21-2.31s4-.05,6-.09h21.92l11,0c1.18,2,.1,4.16.61,6.2V511.45c0,2.56-.05,5.12-.07,7.68-3.9.45-7.68-.67-11.52-.9l-10.94-2.18Z" transform="translate(-81.47 -145.64)"/><path class="cls-1" d="M130,358c-.34,4.77-.34,4.77-4.9,2.78-.57-.25-1.17-.41-1.76-.62a21.14,21.14,0,0,0-5-2.39c-.46-.39-1.16-.78,0-1.11,1.64-.45,3.27-.92,4.9-1.39.79-.14,1.6-.24,2.38-.44C130,353.8,130,353.8,130,358Z" transform="translate(-81.47 -145.64)"/><path class="cls-1" d="M371.06,193.62a15.34,15.34,0,0,1,5.42-2.31c2.62,0,5.24,0,7.69,1.17,5.05,2.45,7.19,6.58,7,12.05a16.3,16.3,0,0,1-3.74,6.67,13.87,13.87,0,0,1-11,2.9c-4.94-1.34-7.78-4.63-8.89-9.53C367.32,200.47,368.12,196.71,371.06,193.62Z" transform="translate(-81.47 -145.64)"/><path class="cls-1" d="M309.75,182.63c0-1.35.06-2.69.06-4,0-.89-.27-1.87,1-2.15l2.41-.08c4.34-.14,6.65,1.87,7.12,6.21-.77,3.2-2.91,4.65-6.09,4.77l-3.53.17C309.25,186.12,310.5,184.18,309.75,182.63Z" transform="translate(-81.47 -145.64)"/></svg>