<svg id="Réteg_1" data-name="Réteg 1" xmlns="http://www.w3.org/2000/svg" viewBox="0 0 544.25 269.58"><defs><style>.cls-1{fill:#fff;}.cls-2{fill:#fefefe;}</style></defs><title>alphatauri</title><path class="cls-1" d="M207.06,372.88c-1.61-1.43-3.08-2.83-4.65-4.12-29.45-24.22-74-8.37-81.58,29C115.3,425,134,452.36,161.28,457c27.48,4.65,52.61-12.32,58.49-39.51a57.18,57.18,0,0,0,1.07-11.31,134.72,134.72,0,0,1,84.27-123.44,136.21,136.21,0,0,1,49.2-9.86c1.92,0,2.34.5,2.34,2.38q-.11,38.83,0,77.66c0,2.27-.83,3.3-2.87,3.83-4.4,1.13-9,1.42-13.32,2.84a50.5,50.5,0,0,0-35.13,48.07c-.16,25.49-6.6,49.22-20.28,70.69-21.81,34.25-52.81,55.29-92.95,62C122.19,552.06,54.39,506.6,38.79,437.9,23.24,369.44,62,300.79,129,279.47c41.86-13.32,81.42-7.07,118,17.27,2.43,1.61,2.39,1.65.39,3.69a151.55,151.55,0,0,0-39.78,70.62C207.48,371.62,207.28,372.17,207.06,372.88Z" transform="translate(-35.37 -272.61)"/><path class="cls-1" d="M579.62,272.9c-2.57,7.17-5,14.06-7.53,21q-11.57,32-23.1,64a2.53,2.53,0,0,1-2.9,2c-11.92-.07-23.84,0-35.76-.08-1.72,0-2.11.45-2.11,2.13.06,16.47.15,32.95,0,49.42a132,132,0,0,1-92.84,124.85,133.59,133.59,0,0,1-40.79,6c-1.54,0-1.88-.46-1.87-1.91q.07-18,0-36a2.22,2.22,0,0,1,1.69-2.48,10.87,10.87,0,0,0,5.95-4.68c1.23-2.05,3.27-2.49,5.49-2.62,3.57-.21,3.95-.57,4.61-4q.9-4.69,1.73-9.39a10.77,10.77,0,0,0-1.65-8.24c-2.54-3.77-5-7.62-7.46-11.42a12.52,12.52,0,0,0-1.7-2.13c-1.21-1.19-2.32-.49-3.45.27s-.29,1.52.06,2.27A51.56,51.56,0,0,0,384.82,472c3.31,4.08,2,12.36-.19,15.77-.33.52-.78,1.05-1.42,1s-.62-.79-.85-1.26a1.26,1.26,0,0,1-.13-.66c.51-6.46-2.85-11.25-6.71-15.88-1.75-2.09-3.3-4.35-4.84-6.6-2.35-3.45-2.05-6.66.8-9.69a5.61,5.61,0,0,1,.65-.64c8.45-6,10-15,10.5-24.52.11-2.35.06-4.71.06-7.06,0-1.72.37-3.38,2.27-3.69,2.14-.35,2.6,1.58,3,3.06,1.69,6.45,1.35,12.92,0,19.38a83.32,83.32,0,0,1-2.65,9.86c-.49,1.41-.17,1.95,1.37,1.83,7.16-.57,14-1.86,19.06-7.7a51.68,51.68,0,0,1,4.3-4.06,2,2,0,0,1,2.5-.37,2,2,0,0,1,.86,2.38,22.83,22.83,0,0,1-3.63,8c-4.19,6.21-7,13.07-9.5,20.05-1.26,3.48-1,3.87,2.54,3.75,1.7-.05,2.35.71,2.39,2.27s0,3.34.18,5a6.33,6.33,0,0,0,8.47,5.38,32.9,32.9,0,0,0,7.45-3.85,24.38,24.38,0,0,1,15.43-4.46,9.47,9.47,0,0,0,8.73-3.85c.14-.18.3-.35.45-.51,3.71-4.07,4.87-4.24,9.41-1.09,3.8,2.64,7.52,5.4,11.88,7.07,2.9,1.11,5.87,2,9.09,1.06a4,4,0,0,0-1.94-2c-7.31-5-12.2-12.16-17.25-19.18a3.1,3.1,0,0,1-.45-.79c-.43-1.27-1.29-2.71.05-3.78s2.65-.11,3.68.77c4,3.41,7.68,7.12,11.32,10.89,2.23,2.31,4.64,4.35,7.85,5.23a9.39,9.39,0,0,0,6.56-.6,1.54,1.54,0,0,0-1-1.06C474,466,467.15,456.77,461.94,446c-4.7-9.69-7.58-20.09-11.44-30.1-2.69-7-4.79-14.17-9.42-20.3-6.28-8.29-14.48-14.17-23.25-19.4-10.8-6.44-22.24-11.71-33.14-18-3.53-2-6.76-4.66-10.94-5.36a1,1,0,0,1-1-1.26c0-.38,0-.76,0-1.14q0-37.69,0-75.38c0-1.73.35-2.28,2.2-2.28q101.46.07,202.92,0Z" transform="translate(-35.37 -272.61)"/><path class="cls-1" d="M356.56,526.27c0,4.71-.05,9.41,0,14.12,0,1.4-.36,1.79-1.77,1.78a134.54,134.54,0,0,1-76.74-24.55c-1.35-.93-1-1.35-.08-2.29a149.92,149.92,0,0,0,30.2-41.84,2.14,2.14,0,0,1,2.34-1.54c9.36.49,18.61-1.3,27.94-1.55,4-.11,5.18-2.14,4.07-5.95-.42-1.45-1-2.87-1.51-4.28-.47-1.22-.46-2.26.88-2.85s2.13.23,2.68,1.34a25.15,25.15,0,0,1,1.15,2.47c2.21,6,6.56,9.63,12.38,11.85a27.85,27.85,0,0,1,13.24,10.34c1.93,2.79,1.93,4.52-.17,7.21-3.62,4.65-8.26,7.51-14.25,7.92a6,6,0,0,1-6.25-3.62c-.89-1.75-1.88-3.46-2.91-5.14a4.39,4.39,0,0,0-4.84-2.18c-2.69.46-5.39.86-8.07,1.36-2.13.4-2.36,1-1.13,2.85,1.08,1.65,2.28,3.21,3.41,4.82,1.41,2,3.2,3.17,5.78,2.81,1.64-.23,2.48.8,3.09,2.15a24.81,24.81,0,0,0,3.81,6.69c1.49,1.67,3.25,2.82,5.59,2.25,1.36-.33,1.12.51,1.12,1.23C356.57,516.55,356.56,521.41,356.56,526.27Zm1.51-34.07a7,7,0,0,0,4.06-1.27,3.92,3.92,0,0,0,1.5-4.63c-.49-1.57-.91-3.65-2.76-3.72-2.51-.1-5.91-.32-7.24,1.55s.79,4.5,1.81,6.68A2.5,2.5,0,0,0,358.07,492.2Z" transform="translate(-35.37 -272.61)"/><path class="cls-1" d="M444.64,442.7c0,1.55-.24,2.84-1.82,3.22s-2.36-.6-2.69-1.84c-1.36-5.15-5.39-7.88-9.45-10.57-3.1-2.05-4-1.87-6.11,1.09-.89,1.25-1.83,2.29-3.56,1.63s-1.69-2.1-1.46-3.45a21.26,21.26,0,0,1,5.38-11.06,2.49,2.49,0,0,1,4-.05c3.6,3.6,7.43,6.93,11.21,10.33C443.29,434.85,444,438.88,444.64,442.7Z" transform="translate(-35.37 -272.61)"/><path class="cls-1" d="M394.17,394.08c-.11.86.09,2-1.12,2.4s-1.83-.41-2.35-1.26c-2.83-4.62-6.86-8.05-11.19-11.16a38,38,0,0,1-5.54-4.33,3.11,3.11,0,0,1-.6-4.12,3.28,3.28,0,0,1,4-1.42,12.41,12.41,0,0,1,3.33,1.41,32.47,32.47,0,0,1,12.1,13A12.24,12.24,0,0,1,394.17,394.08Z" transform="translate(-35.37 -272.61)"/><path class="cls-1" d="M434.48,466.76c0,4.7-2.42,6.95-6.79,6.62a2.42,2.42,0,0,1-2.54-2.32c-.56-3.84,3.47-8.21,7.31-7.78C434.76,463.53,434.17,465.54,434.48,466.76Z" transform="translate(-35.37 -272.61)"/><path class="cls-2" d="M358.07,492.2a2.5,2.5,0,0,1-2.63-1.4c-1-2.18-3.06-4.92-1.81-6.68s4.73-1.65,7.24-1.55c1.86.08,2.27,2.15,2.76,3.72a3.92,3.92,0,0,1-1.5,4.63A7,7,0,0,1,358.07,492.2Z" transform="translate(-35.37 -272.61)"/></svg>