<svg id="Réteg_1" data-name="Réteg 1" xmlns="http://www.w3.org/2000/svg" viewBox="0 0 462.55 233.37"><defs><style>.cls-1{fill:#fff;}.cls-2{fill:#1e1e1c;}.cls-3{fill:none;}.cls-4{fill:#fefefe;}</style></defs><title>alpine</title><path class="cls-1" d="M181.15,271.25c.54,1.07-.17,1.94-.47,2.86-6.29,19.37-12.56,38.75-18.94,58.09-.76,2.31-.38,2.78,2.06,2.77q35.38-.14,70.77,0a7.05,7.05,0,0,0,4.65-1.75q93.61-72.51,187.23-145a9.57,9.57,0,0,1,6.37-2.14c14.54.09,29.08.05,43.62.05h3.31c-16.18,49.74-32.26,99.12-48.41,148.78h87.39c.06,1.24-.88,1.46-1.45,1.9-12.59,9.79-25.22,19.54-37.78,29.37a7.45,7.45,0,0,1-5,1.66c-17.08-.06-34.17,0-51.25-.09-2,0-2.92.52-3.56,2.54-4.93,15.55-10.06,31-15,46.59-.64,2-1.52,2.58-3.59,2.57q-22.28-.15-44.54,0c-2.43,0-3.15-.27-2.25-3,5.1-15.28,10-30.65,15-45.94.82-2.47.27-2.78-2.1-2.77q-54,.11-108,0a6.34,6.34,0,0,0-4.15,1.44q-31.31,24.29-62.66,48.52a6.25,6.25,0,0,1-4.06,1.71c-19.42-.09-38.84-.09-58.26-.11-.39,0-.78-.06-2-.16L194.5,367.8H56.18L71.41,356l108-83.56a20,20,0,0,1,1.77-1.09Zm226.24-19.6c-.67.44-1.38.84-2,1.33L314,323.67,299.5,334.93H303c25,0,50,0,75,.07,2.39,0,3.28-.82,4-2.95,6-18.62,12.1-37.19,18.06-55.82,2.59-8.09,5.61-16.05,7.63-24.33.29-.06.44-.21.27-.49A2.47,2.47,0,0,0,407.39,251.65Z" transform="translate(-56.18 -186.03)"/><path class="cls-2" d="M181.2,271.33l.39-.29a2.72,2.72,0,0,1,0,.28l-.43-.06Z" transform="translate(-56.18 -186.03)"/><path class="cls-3" d="M407.66,251.9c-2,8.27-5,16.23-7.63,24.33-5.95,18.63-12.09,37.2-18.06,55.82-.68,2.13-1.57,3-4,2.95-25-.11-50-.07-75-.07h-3.48L314,323.67,405.37,253c.63-.49,1.34-.89,2-1.33Z" transform="translate(-56.18 -186.03)"/><path class="cls-4" d="M407.39,251.65a4.89,4.89,0,0,1,.54-.24c.18.28,0,.43-.27.49Z" transform="translate(-56.18 -186.03)"/></svg>