<svg id="Réteg_1" data-name="Réteg 1" xmlns="http://www.w3.org/2000/svg" viewBox="0 0 415.8 90"><defs><style>.cls-1{fill:#fff;fill-rule:evenodd;}</style></defs><title>aston_martin</title><path class="cls-1" d="M483.8,160.1l-3.9,6.5a3.93,3.93,0,0,1-3.9,2.2H380.8a82,82,0,0,0,5.3-10.6L483,158c2.2-.1.8,2.1.8,2.1Zm-17,19.8s-.5.7-2.2.5l-88.4-4.3c.9-1.4,1.8-2.7,2.6-4l92.9.1Zm-10.2,8.7c-.8,2.2-2.4,2.3-2.4,2.3l-83.1-7.7c1-1.3,2-2.6,2.9-3.8l85.2,3.9-2.6,5.3Zm-37,11.8-52.9-12,2.1-2.4,76.2,7.4-25.4,7Zm-23.5,6.5-33.3-14.2c.6-.6,1.1-1.2,1.7-1.8l48.7,11.3Zm-16.9,4.7L357.4,198a38.33,38.33,0,0,0,2.9-2.8l30.9,13.1Zm-6,9.4-22.8-17.2c1.6-1.2,3.1-2.5,4.5-3.7l22.2,14-3.9,6.9Zm-2.1,2.8a4.56,4.56,0,0,1-.8.4L359.5,227l-16.2-18,4.8-3.3,23.4,17.9-.4.2ZM346,230.5l-11-16.6c1.9-1,3.8-2.1,5.6-3.2l15.7,17.2L346,230.5Zm-13.9,3.6-6.8-15.5c2.3-1,4.6-2,6.7-3.1l10.8,15.9Zm-14.6,3.8-2.8-15.4q4.05-1.2,7.8-2.7l6.7,15.1-11.7,3Zm-14.6,3.7-.1-16.2q4.65-.9,9-2.1l2.8,15.3Zm-8.5-17.5-2.2-29.5H298l5.5,27.9c-3.3.7-6.4,1.2-9.1,1.6Zm-9.4,3.5a138.72,138.72,0,0,0,14.9-1.6v14.2Zm-3.4-2.7V194.6h7.5l2.4,29.8a86.44,86.44,0,0,1-9.9.5Zm67.6-30.3h7.4c-1.5,1.4-3,2.7-4.4,4Zm-9.7,0h5.9l4.4,6c-1.5,1.2-2.9,2.3-4.4,3.3l-5.9-9.3Zm-8.9,0h5.2l7.3,11q-2.55,1.8-5.1,3.3l-7.4-14.3Zm-9.8,0H327l8.3,15.9c-2,1.1-4,2.2-6,3.2Zm-5,24.5c-3.1,1-6.2,1.9-9,2.6l-5.6-27.1h6.2l8.4,24.5Zm-5.2-24.5h7l9,20.3c-2.7,1.2-5.4,2.3-8,3.3ZM201,191.5V171.9H358.2v19.6Zm67.2,32.6,2.6-29.6h7.5l.1,30.2A84.72,84.72,0,0,1,268.2,224.1Zm-8.4,16.1V226a136.83,136.83,0,0,0,14.8,1.6l-14.8,12.6Zm-3.6-17.9,5.7-27.7h5.9l-2.4,29.2c-3.2-.4-6.3-.9-9.2-1.5Zm.6,19.3-11.8-3,2.8-15.3q4.35,1.2,9,2.1v16.2Zm-14.6-3.7-11.7-3,6.7-15.1q3.75,1.5,7.8,2.7l-2.8,15.4Zm-25.4-6.6,10.8-15.9c2.2,1.1,4.4,2.1,6.7,3.1L227.5,234l-10.7-2.7Zm-13.4-3.4,15.7-17.2c1.8,1.1,3.7,2.2,5.6,3.2l-11.1,16.6-10.2-2.6Zm-14-3.7a4.56,4.56,0,0,1-.8-.4l-.3-.2,23.4-17.9q2.25,1.65,4.8,3.3l-16.2,18-10.9-2.8Zm18.3-25.7c-2.9-2.4-4.6-4-4.6-4h7.5Zm6.7,5.2c-1.6-1.1-3-2.3-4.3-3.3l4.6-5.9h5.7l-6,9.2Zm7.7,5.2c-1.8-1.1-3.6-2.3-5.2-3.4l7.3-10.9h5.2Zm8.3,4.5c-1.9-.9-3.8-1.9-5.7-2.9l8.1-15.9h5.6l-8,18.8Zm22.1-18.8h6.2l-5.5,27.1c-3.2-.8-6.4-1.6-9.4-2.6l8.7-24.5Zm-11.4,23.5c-2.8-1-5.5-2.1-8.1-3.2l8.7-20.3h7.4l-8,23.5Zm-58.6-4,22.2-14a55.42,55.42,0,0,0,4.5,3.7L186.5,221l-4-6.9Zm-14.1-5.8,30.9-13.1c.9.9,1.9,1.8,2.9,2.8l-21.8,13.6-12-3.3Zm-21.9-6.1,48.7-11.3c.6.6,1.1,1.2,1.7,1.8l-33.3,14.2Zm-31.8-8.8,76.2-7.4c.7.8,1.3,1.6,2.1,2.4l-52.9,12-25.4-7Zm-11.6-4.8-2.5-5.3,85.2-3.9c.9,1.3,1.9,2.5,2.9,3.8l-83.1,7.7c-.1,0-1.7-.1-2.5-2.3ZM95,180.4c-1.7.2-2.2-.5-2.2-.5L88,172.2l92.9-.1c.8,1.3,1.6,2.6,2.6,4ZM83.6,168.8a3.75,3.75,0,0,1-3.9-2.2l-3.9-6.5s-1.4-2.2.7-2.2l96.9.2a82,82,0,0,0,5.3,10.6l-95.1.1Zm114.6,16.6v4.8c-1.5-1.5-2.8-3.1-4.1-4.6l4.1-.2Zm-11.6-9.6c-.9-1.3-1.7-2.5-2.5-3.7h14v3.5l-11.5.2Zm11.5,2.8v3.8l-6.4.4c-1-1.3-2-2.5-2.9-3.8l9.3-.4Zm44.1-20.7c16.2,0,14.7,10.9,14.7,10.9l-74.8-.1a77.42,77.42,0,0,1-5.4-10.8Zm119.3,17.6V172h14c-.8,1.2-1.6,2.5-2.5,3.7Zm4,10.2c-1.3,1.5-2.7,3-4.1,4.6v-4.8l4.1.2Zm-4-3.3v-3.8l9.2.4c-.9,1.2-1.9,2.5-2.9,3.8l-6.3-.4Zm-44-24.5H383a77.42,77.42,0,0,1-5.4,10.8l-74.8.1c-.1,0-1.5-10.9,14.7-10.9ZM483.1,155H316.9C299,155,300,168.8,300,168.8H260.1s1-13.8-16.9-13.8H76.9s-7.7,0-3.4,7l3.9,6.5a7.16,7.16,0,0,0,6,3.6h1.2l6,9.4s1.7,2.7,4.4,2.2l2.2-.2,3.4,7s1.5,2.4,3.4,2.9l75.4,21.3,4.4,8.2s1.9,3.9,5.6,4.6l67.7,17.4a3.57,3.57,0,0,0,3.1-.7l19-16.4h1.4l19.5,16.4a3.58,3.58,0,0,0,3.1.7l67.7-17.4c3.6-.7,5.6-4.6,5.6-4.6l4.4-8.2,75.4-21.3c1.9-.5,3.4-2.9,3.4-2.9l3.4-7,2.2.2c2.7.5,4.4-2.2,4.4-2.2l6-9.4h1.2a7.16,7.16,0,0,0,6-3.6l3.9-6.5c4.1-7-3.7-7-3.7-7ZM207.4,182.7l2.2-5.3,2.5,5.3Zm3.1-8.1h-.6l-6.4,14.8h1.4l2.2-5.6h5.3l2.2,5.6h2.2Zm14.7,13.7a5.33,5.33,0,0,1-3.6,1.4l-1.9-.3-1.4-1.1.3-1.7h.3a3.77,3.77,0,0,0,3.3,2.2,2.06,2.06,0,0,0,1.9-1.1,3,3,0,0,0,.8-2.2,2.56,2.56,0,0,0-.8-1.9l-2.2-1.1a5.44,5.44,0,0,1-2.2-1.1,3.51,3.51,0,0,1-1.1-2.5,4.3,4.3,0,0,1,1.4-3.1,3.94,3.94,0,0,1,3.1-1.1,4.08,4.08,0,0,1,3.1,1.1l-.6,1.7a2.67,2.67,0,0,0-2.8-1.9,1.88,1.88,0,0,0-1.7.8c-.6.3-.8.8-.8,1.7a3.29,3.29,0,0,0,.8,2.2l2.5.8a24.3,24.3,0,0,0,2.2,1.4,3.29,3.29,0,0,1,.8,2.5,5,5,0,0,1-1.4,3.3Zm13.6-12.8.3.8-4.5-.3v13.4h-1.9V176l-4.7.3.3-.8-.3-.6h11.1l-.3.6Zm13.1,10.8a5.39,5.39,0,0,1-4.7,2.5,5.55,5.55,0,0,1-3.9-1.7,6.6,6.6,0,0,1-1.7-4.7,10.08,10.08,0,0,1,1.4-5,5.31,5.31,0,0,1,4.4-2.2,5.64,5.64,0,0,1,4.5,2.2,8.19,8.19,0,0,1,1.1,4.7,6.09,6.09,0,0,1-1.1,4.2Zm.8-10a8.9,8.9,0,0,0-5.6-1.7,8.1,8.1,0,0,0-5.6,1.9,7.53,7.53,0,0,0-2.2,5.6,7.86,7.86,0,0,0,2.2,5.6,7.5,7.5,0,0,0,5.6,1.9,7.84,7.84,0,0,0,5.8-2.2,7.37,7.37,0,0,0,2.2-5.6A6.24,6.24,0,0,0,252.7,176.3Zm17.8,13.1h-.8l-10-11.4h-.3v11.4h-1.1V174.9h.8l10,10.9V174.9h1.4v14.5Zm11.2-14.5c2.5,4.7,4.5,8.4,6.1,11.1l6.1-11.1h.3l1.7,14.5H294l-1.1-10.9a112.22,112.22,0,0,0-5.3,10.6h-.3l-1.4-2.2-4.2-8.4-.8,10.9h-1.7l2.2-14.5Zm19.7,7.8,2.2-5.3,2.2,5.3Zm3.1-8.1h-.6l-6.7,14.8h1.7l1.9-5.6h5.6l2.2,5.6h1.9Zm10.3,7v-5.8h3.1c1.7.3,2.5,1.1,2.5,2.8l-.8,2a7.56,7.56,0,0,1-2,.8l-2.8.2Zm3,.6a11.67,11.67,0,0,0,2.8-1.1,4,4,0,0,0,1.4-2.8c0-2.2-1.4-3.3-4.5-3.3h-4.4v14.5h1.7v-7h.8l5.6,7h2.2l-5.6-7.3Zm10.3,7.2V176l-4.5.3v-1.4h10.6v1.4L330,176v13.4Zm10.6-14.5v14.5h-1.9V174.9Zm16.4,14.5h-.8l-10-11.4H344v11.4h-1.1V174.9h.6l10.3,10.9V174.9h1.4l-.1,14.5Z" transform="translate(-72.19 -155)"/></svg>