<svg id="Réteg_1" data-name="Réteg 1" xmlns="http://www.w3.org/2000/svg" viewBox="0 0 425.2 575.91"><defs><style>.cls-1{fill:#fff;}</style></defs><title>ferrari</title><path class="cls-1" d="M85.7,293.19q-.4-39.69-.86-79.39c0-2.24.36-3.16,2.89-3.57,19.21-3.14,38.39-6.53,57.58-9.8,14.63-2.48,29.27-4.85,43.89-7.34,14.33-2.42,28.65-4.94,43-7.38q23.82-4.07,47.65-8.07c3.41-.57,6.89-.92,10.21-1.82,5.14-1.39,10.15-.7,15.22.17q25.14,4.35,50.28,8.63,38.15,6.54,76.31,13,30.86,5.24,61.72,10.38c4.68.79,9.34,1.66,14,2.36,1.75.27,1.84,1.21,1.8,2.66-.66,43.42-1.4,86.83-1.85,130.25-.19,17.17-.74,34.29-2.75,51.33a492.72,492.72,0,0,1-14.7,74.75c-14.19,50.74-35.83,98-66.62,140.81C391.33,655,351.44,691.38,304.65,720.44c-5.62,3.49-9.32,3.62-15.08.06q-97.63-60.36-150.64-162C118.07,518.38,103.79,476,95.1,431.71a436.68,436.68,0,0,1-8.53-86.79c.09-17.24,0-34.49,0-51.75C86.3,293.19,86,293.19,85.7,293.19ZM499.92,315.8h-.06c.42-20.11.82-40.24,1.32-60.36a3.35,3.35,0,0,0-2-3.49,215,215,0,0,0-23.57-11.3c-42.31-17.38-86.59-26-132-29.72a582.4,582.4,0,0,0-98,.42,478.08,478.08,0,0,0-81.63,14c-23.6,6.32-46.57,14.33-68.12,26.05a4.61,4.61,0,0,0-2.85,4.8c.72,29.34,1.5,58.68,1.85,88,.28,23.33,1.53,46.57,5,69.64,7.16,47,20.68,92.13,42,134.77,34.9,69.72,86.21,124.09,153.24,163.74a3.18,3.18,0,0,0,3.76.05,395.62,395.62,0,0,0,95.6-78.2c40.84-46,68.73-99.08,86-157.93a446.15,446.15,0,0,0,18-105.83C499.29,352.29,499.47,334,499.92,315.8Z" transform="translate(-84.43 -147.21)"/><path class="cls-1" d="M509.63,193.63c0,6.2,0,6.11-6.32,4.94-20.76-3.86-41.53-7.63-62.29-11.49q-41-7.62-82.07-15.3-29.68-5.5-59.4-10.88c-5.51-1-10.76,1.08-16.06,2-19.81,3.54-39.58,7.32-59.37,11q-28.23,5.28-56.46,10.55c-17.67,3.26-35.34,6.45-53,9.7-9,1.66-18,3.34-27,5.13-2.43.48-3.39,0-3.14-2.64a34.64,34.64,0,0,0,0-6.83c-.2-2.06.67-2.68,2.52-3,12-2.22,24.06-4.52,36.09-6.82,19.2-3.67,38.4-7.4,57.6-11,20.67-3.93,41.34-7.78,62-11.7,16.77-3.18,33.58-6.29,50.3-9.72,4.83-1,9.21.42,13.7,1.24,21.37,3.93,42.7,8,64,12.1q37.11,7.06,74.21,14.17,28.79,5.48,57.58,10.9c.19,0,.4,0,.59,0C509.64,187.06,509.64,187.06,509.63,193.63Z" transform="translate(-84.43 -147.21)"/><path class="cls-1" d="M225.12,374.76a3.54,3.54,0,0,0-1.67-2.19,62.71,62.71,0,0,1-15-16.72A5.32,5.32,0,0,0,204,352.8c-1.64-.12-2.59.22-3.33,1.69-2.84,5.64-6.92,10.37-11.19,14.95a34.79,34.79,0,0,0-8.79,16.16c-1,4.28-2.88,7.8.19,11.93,1.06,1.42-.29,3.28-1.44,4.53a29.78,29.78,0,0,1-13.94,8.14c-2.11.61-2.93-.4-2.92-2.42a31.19,31.19,0,0,1,3.63-15.16,7.83,7.83,0,0,0,1.26-3.91,16.93,16.93,0,0,1,3.33-10c7.22-10.48,12.08-22.3,18.84-33,2.33-3.68,4.48-7.49,7-11a10.09,10.09,0,0,1,10.92-4.29,18.44,18.44,0,0,1,10.94,6.13c2.39,2.91,5.43,4.85,8.45,6.91,4.09,2.79,8.21,5.54,12.24,8.42,1.18.84,2,.9,3.06-.09,4.85-4.31,10.08-8,16.35-10a10.15,10.15,0,0,0,5.36-4.58c3.46-5.81,8.53-10.15,13.05-15,7.86-8.39,12.26-18.64,16.15-29.16,1.62-4.4.22-6-4.25-5.23-4,.65-7.66-.64-11.4-1.54-2.6-.62-5.18-1.27-7.82-1.77a16.53,16.53,0,0,0-11,1.49,9.16,9.16,0,0,1-8.57.34c-.77-.38-1.72-.94-1.64-1.94s1.09-1.24,2-1.47c1.82-.49,3.63-1,5.41-1.61,1-.32,2.59-.48,2.18-1.86s-1.83-.61-2.78-.3a52,52,0,0,1-9.54,2.21c-1.68.21-2.59-.33-3-2a12.89,12.89,0,0,1,1.18-9.44c2.94-5.4,6.64-9.06,13.28-9.39,4.88-.25,9.15-3.06,13.68-4.76,6.47-2.44,11.43-7.8,18.64-8.86-1.15-2.18-2.65-.74-3.83-1.27-.4-1.16,1.55-.72,1.26-1.8-5.4-.85-10.44-4.11-16.32-2.09,3.36-4.2,8-1.83,12.28-2.88-1.94-1.64-4.48-.92-6.34-2.84,4.82-1,9.23-2.05,13.75.06,2,.91,4,1.71,6,2.48a5.37,5.37,0,0,0,4.59-.39c.73-.39,1.54-1,.93-1.86-2.9-3.78.21-6.9.94-10.82,4.08,4.7,9.75,7,13,12.07a2.62,2.62,0,0,0,2.75,1.26,13.46,13.46,0,0,1,12.25,5.38,8,8,0,0,0,6.76,3c3.07,0,6.15.1,9.22-.1a8.8,8.8,0,0,1,7.19,2.87c.54.54,1.3,1.16.73,2s-1.51.69-2.38.28c-5.14-2.39-9.13,1-13.64,2.67,6,1,10.67,4.34,15.48,7.39a2.42,2.42,0,0,0,1.37.48c6.82-.64,11,4.29,16,7.53.46.31,1.08.76.83,1.43s-1,.43-1.54.31a7.25,7.25,0,0,1-2.51-.86c-3.46-2.47-7.22-2.73-11.32-2.23-4.88.58-9.23-1.94-13.82-3.07-1.36-.34-3.5-1.72-4-.37-.75,1.85,1.77,2.18,3.07,2.79a18.8,18.8,0,0,1,8,6.35,5.9,5.9,0,0,0,4.8,2.55c5.35.41,10.34,1.8,14.38,5.61a17.76,17.76,0,0,1,1.81,2c.51.66.82,1.62.13,2.16s-1.18-.38-1.59-.85c-2.68-3.12-5.76-4.4-10-3.29A11.77,11.77,0,0,1,348.18,280a3,3,0,0,0-3.05-.93c3.27,2.87,5.17,6.31,8.87,7.61a30.68,30.68,0,0,1,8.53,4.05,6.67,6.67,0,0,0,3.35,1.1c.57.07,1.33,0,1.37.8s-.63.93-1.17,1.18a4.08,4.08,0,0,1-3.18.36c-4.6-1.92-9.69-2.11-14.24-4.14-1.62-.73-3.11-1.73-4.71-2.49a8,8,0,0,0-2.57-.66c-1.1-.12-2.56.05-2.76,1.15s1.34,1.21,2.21,1.43A27.4,27.4,0,0,1,349.3,293c.75.48,1.77.84,2.15,1.54,2.52,4.58,7.24,7.12,10.25,11.22,1.2,1.64,2.94,2.24,4.68,3,.72.31,1.65.72,1.51,1.61-.18,1.09-1.25.67-2,.68a7.82,7.82,0,0,1-6.43-2.5,5.9,5.9,0,0,0-2.87-2.06c-5.54-1.33-10.5-4.08-15.72-6.22a5.07,5.07,0,0,0-1.35-.08,10.82,10.82,0,0,0,4.57,5.79c2.44,1.69,5.19,2.92,7.35,5a10.66,10.66,0,0,1,3.29,4.87,7.62,7.62,0,0,0,6.28,5.95c1.76.39,4.75.63,4.44,2.57s-3.33,1.48-5.18,1.26a13.68,13.68,0,0,1-8.78-4.54c-3.56-4-8.79-3.61-13.26-5.2a1.42,1.42,0,0,0-1.74.82c-.28.88.6,1.18,1.21,1.37a13.66,13.66,0,0,1,7,5.71,6.82,6.82,0,0,0,3.29,2.46,19.3,19.3,0,0,1,9.3,8.43c.91,1.51,1.52,3.25,3.08,4.31.44.29.75.73.36,1.24a1.15,1.15,0,0,1-1.35.33,7.52,7.52,0,0,1-3.06-2.29c-4-4-9.57-4.66-14.23-7.28.55,2.37,2.32,3.38,4.05,4.49.68.43,2,.79,1.37,1.88-.47.83-1.68.52-2.46.12-1.75-.9-3.31-2.18-5.29-2.65a2.43,2.43,0,0,0-2.15,0c.91,2.65,3.27,3.39,5.51,3.81A16.89,16.89,0,0,1,352.1,343a11.42,11.42,0,0,0,5.5,2.79c.8.17,1.64.31,1.58,1.38s-1,1.2-1.72,1.28a14.89,14.89,0,0,1-9.65-2.24c-3.25-2.11-6.65-3.46-10.68-1.49.29.27.49.61.65.58,6.81-.55,11.09,4,15.78,7.74.38.3.92.58.6,1.16a.84.84,0,0,1-1.28.3c-5.19-3.69-11-2.22-16.68-2.08-3.21.07-6-1.78-9.1-2.3-.39,1.33.56,1.48,1.21,1.75a58.52,58.52,0,0,0,10.25,3.91c2.93.67,5.05,2.57,7,4.74,5.29,5.81,8.38,6.28,15.35,2.54.5-.26,1.1-.87,1.56-.35.72.8,0,1.53-.6,2a13.76,13.76,0,0,1-12,3,29.11,29.11,0,0,1-5.28-1.92c-2.49-1-4.87-2.29-7.42-3-3.4-1-7-1.38-10.42-2.37a6.29,6.29,0,0,0,4.43,2.75c5.73,1.09,9.4,5.29,13.5,8.82.89.77,1.3,2.11.44,2.91s-1.57-.44-2.18-1c-2.78-2.49-5.73-4.6-9.6-4.92a7.91,7.91,0,0,0-1.46,0c-.13,0-.25.27-.41.46.52.84,1.46.82,2.26,1.07a12,12,0,0,1,6.92,5.76,12.78,12.78,0,0,0,4.37,5.12c.39.24,1,.39.81,1.05a1,1,0,0,1-1.47.52,14.9,14.9,0,0,1-3.32-1.9c-4.77-4-9.71-7.54-16.19-8.15-1.84-.18-3.14-1.62-4.62-2.59-1.73-1.15-2.76-.85-3.27,1.38-1.9,8.4.6,16,4.51,23.12,5.12,9.33,11.35,17.85,20.41,24a103.3,103.3,0,0,1,26.06,25c4.19,5.77,7.53,11.93,8.95,18.92.62,3,2.06,3.64,4.71,3.16A32.78,32.78,0,0,0,405,449.6c3.65-6.13,4.24-12.94,4.33-19.81a97,97,0,0,0-4-28.74c-3.44-11.58-3.83-23.05,2.26-34,4.21-7.58,10.71-12.89,17.82-17.56.75-.49,1.79-1.18,2.38-.33s-.55,1.53-1.18,2.09c-6.42,5.69-11.38,12.38-14.12,20.6a24.49,24.49,0,0,0-1.36,9.06c0,.86-.31,2,.56,2.49s1.5-.67,2.16-1.18a58.45,58.45,0,0,0,15.3-17.63c.68-1.24,1.32-3.6,3.06-2.86,1.55.65.74,2.79.39,4.34a28.6,28.6,0,0,1-5.69,11.31c-2.49,3.21-5,6.36-6.73,10.12a17.14,17.14,0,0,0-1.24,11c.64,2.81,1.72,3.22,3.79,1.23a40.08,40.08,0,0,0,9.71-14.09c.54-1.37,1.15-2.74,1.77-4.08.19-.44.47-1,1-.86s.7.63.86,1.11a10.43,10.43,0,0,1,.19,5.86,17,17,0,0,1-3.67,7.4c-6,6.61-6.75,14.61-6.24,22.85.34,5.52,1.7,11,2.09,16.49.9,12.64-1.93,24.06-11.95,32.77a33,33,0,0,1-12,6.41c-1.72.53-2.09,1.13-1.36,2.9,2.23,5.39,3.62,10.84.76,16.6-1,2-.42,4.5.14,6.74a11.5,11.5,0,0,1,.29,5.43c-2.41-3.25-4-6.17-4.24-9.75-.24-3.26.12-6.57-.76-9.77a14,14,0,0,0-3.69-6.68c-.41-.39-.9-1.05-1.5-.69s-.43,1.21-.11,1.85c1.11,2.2,2.42,4.26,2.69,6.85,1.09,10.38-2.7,19-9.3,26.69-4.46,5.18-5.14,6.52-5.83,12.49a6.49,6.49,0,0,1-2.42-7.68c1-3.36,3.06-6.21,4.68-9.26,2.82-5.29,5.34-10.68,4.44-16.94-.18-1.26.2-3.22-1.66-3.26-1.61,0-2.16,1.75-2.18,3.11a20.19,20.19,0,0,1-2.21,7.95c-.94,2.09-1.1,4.38-1.33,7.06-1.76-1.8-1.72-3.76-1.76-5.62a42.53,42.53,0,0,1,1.64-10.84c.73-3,1.21-6,.2-9.09-.36-1.1-1-2-2.35-1.86s-1.45,1.24-1.53,2.22c-1.14,13.13-8.74,22.44-18.18,30.59a130.51,130.51,0,0,1-13.71,10c-7.76,5.11-10.07,14.77-4.8,22.35,2.82,4,2.77,8.3,2.88,12.74.07,2.25-1.48,3.33-3.23,4.21a82.88,82.88,0,0,0-28,23.05,8.37,8.37,0,0,0-1.85,3,7.81,7.81,0,0,1-5.18,5.66c-2.77,1-3.85,3-2.71,5.89s-.1,4.57-2.7,5.59c-7.32,2.85-14.76,2.38-22.22.71-2.15-.49-1.79-2.1-1.17-3.54,1.55-3.68,4.42-6.31,7.43-8.75,1.84-1.5,3.88-2.75,5.84-4.1a8.1,8.1,0,0,0,3.48-4c1-3.05,3.26-4.86,5.64-6.68,8.28-6.32,16.61-12.56,23.54-20.44a33.06,33.06,0,0,0,2.42-3,5.3,5.3,0,0,0,0-6.56c-7.08-11-12.71-22.65-14.36-35.83a47.11,47.11,0,0,1,6.21-29.71c2.21-3.87,4.74-7.56,5.91-12a18,18,0,0,0,.53-5.89c0-.58,0-1.36-.78-1.4s-1,.65-1.07,1.24c-1.35,7-5.81,12.52-8.87,18.71-6.79,13.73-7.76,27.88-2.23,42.31,1,2.58,2,5.16,3,7.76a11,11,0,0,1,.62,4.39c-.23,5.19-2.31,7.29-7.37,6.36-6.42-1.18-12.7-3-19.08-4.42A90.82,90.82,0,0,0,267.09,538a28.09,28.09,0,0,0-8,.73c-3.5,1.07-6.83,1.45-10.38-.2-2.76-1.27-4.66.88-5.69,3-1.68,3.46-4.17,4-7.59,3.38a38.2,38.2,0,0,1-12.25-4.33c-4.41-2.57-4.51-5.12-.08-7.54,4.18-2.28,8.61-4.11,13.47-4.33,5-.22,10-.39,15-1.61,4.28-1,8.65.3,13,.68a183.71,183.71,0,0,0,30.58.49c4.53-.36,6.73-5.37,4.33-9.29-7.18-11.69-13.53-23.77-16.76-37.23a47.62,47.62,0,0,1-1-17.12c.25-2.07.88-2.51,2.82-1.4a109.07,109.07,0,0,1,18.59,13.79c.44.4.82.87,1.28,1.23.65.49,1.29,1.69,2.17.88s0-1.68-.44-2.43a17.31,17.31,0,0,0-5-5.46c-4.6-3.28-9.37-6.33-13.81-9.82-12.31-9.67-24.7-19.28-34.44-31.77-3.49-4.48-6.06-9.53-9.37-14.12a8.75,8.75,0,0,0-5.67-3.88,18.5,18.5,0,0,1-11.64-7.59c-1.78-2.41-4.54-3.83-7.14-5.23a89.53,89.53,0,0,1-14-8.92,10.94,10.94,0,0,0-2-1.29c-1.46-.71-2.95-1.18-4.49-.12s-1.1,2.63-.67,4a46.15,46.15,0,0,1,1.84,13.2,32.23,32.23,0,0,0,4,16,10.63,10.63,0,0,1,1.38,6c-.14,2.74,1.08,4.38,3.76,5.28,6.13,2.07,7.38,3.9,7.41,10.47,0,3.79-.32,7.59-2.24,11-2.19,3.85-4.49,4.06-7.41.73a56.52,56.52,0,0,1-9.8-16.88,17.83,17.83,0,0,0-4.21-6.74,7,7,0,0,1-2.1-4.18c-2-14-3.85-28-5.87-42-.74-5.09,1.14-9.16,4.42-12.71,3-3.29,6.6-5.15,11.38-4.25,7.51,1.42,15,2.63,22,6.05A2.62,2.62,0,0,0,225.12,374.76ZM289,451.64c-.24-1.17-1.21-1.78-2-2.49a370.23,370.23,0,0,1-30.07-31.67c-1-1.21-2.51-3.52-3.71-2.6s.62,3,1.49,4.27A113.45,113.45,0,0,0,287.11,451C287.63,451.39,288.14,452,289,451.64Zm127-28.53c0,1.88-.13,3.55,0,5.19,1.11,12.65-1.82,23.75-12.06,32.13a8.6,8.6,0,0,0-1.8,2.33c-.33.56-.72,1.34-.13,1.93s1.33.05,1.84-.31c7.48-5.25,13.71-11.38,14.72-21.14a51,51,0,0,0-1.06-17.67C417.3,424.7,417.49,423.56,416,423.11ZM329.74,419c-3.56-4-7.44-7.51-10.59-11.74-4.24-5.7-7.73-11.74-8.72-18.94-.21-1.49.26-4.07-1.64-3.84-2.35.29-1.11,2.87-1.19,4.52a1,1,0,0,0,.07.29c1.44,8.82,5.74,16.16,11.88,22.47A28.65,28.65,0,0,0,329.74,419ZM306,302c-3.26,10.75-9,20.21-15.17,29.47C300.78,323.77,308.41,311.65,306,302Zm-19.41,48.5c.21-1-.6-1.4-1.16-1.9-4.77-4.32-14.43-5.06-19.84-1.55-.69.44-1.51.95-1.22,1.81.44,1.28,1.46.56,2.26.31,6-1.91,11.92-1.21,17.72,1C285,350.5,285.72,351,286.55,350.52Zm84.7,124.74c-.08-1.14-.08-3.37-2.19-3.24s-1.76,2.38-1.44,3.89a13.62,13.62,0,0,1-.93,7.81c-.29.76-.59,1.61.32,2.1,1.14.58,1.64-.43,2-1.16A22.71,22.71,0,0,0,371.25,475.26Zm-102.08,55c2.89,4,18.23,4.79,21.39,1.25C283.32,532.16,276.51,531.37,269.17,530.23ZM321,449a4.11,4.11,0,0,0,.09.91c.2.73.24,1.8,1.09,1.89,1,.11,1.07-1,1.22-1.7a8.6,8.6,0,0,1,5.34-6.58c.9-.37,2.32-1,1.75-2.28s-1.92-.76-2.94-.6C324.06,441.22,321,445.05,321,449Zm5.28,111.73A64.33,64.33,0,0,0,311,575.48,54.12,54.12,0,0,0,326.3,560.76ZM298.9,260.45c-.61-1.94-1.14-4.2-3.57-4.87a5.24,5.24,0,0,0-5.6,1.76c-.43.51-.91,1.15-.46,1.85a1.11,1.11,0,0,0,1,.33c2.66-1.09,4.25.48,5.85,2.19.49.52,1.11,1.3,2,.72C298.78,262,298.87,261.3,298.9,260.45ZM317,509.18c-.28-5.55-.5-10.39,1.88-14.82a.88.88,0,0,0-.29-1.29c-.66-.34-1.1.22-1.54.58C313.67,496.42,313.27,505.24,317,509.18Zm-94.24-114.6a3.64,3.64,0,0,0-.51-.73c-3.85-3.22-8.36-5.16-13-6.81a1,1,0,0,0-1.46.63c-.19.76.56,1,1.08,1.1,3.29,1,5.89,3.17,8.75,4.88a11,11,0,0,0,3.72,1.77C221.93,395.53,222.73,395.69,222.73,394.58Zm-28.45,18c-.71-3.14-1.19-5.45-1.78-7.71a32,32,0,0,1-.59-7.36,1.11,1.11,0,0,0-.74-1.16c-.54-.18-.84.24-1,.74C188.71,400.32,190.76,409.15,194.28,412.56Zm-8-52.92c3.5-2.88,5.47-6.84,7.89-10.48a1.84,1.84,0,0,0,.17-1.15A1.63,1.63,0,0,0,194,347a1,1,0,0,0-1.3.33C189.83,351,187.17,354.86,186.26,359.64Zm96.39-105.78c-5.28,4.53-10.93,6.63-16.69,8.52C273.64,263,280.27,259.8,282.65,253.86ZM242.87,360.51c-4.56,1.44-10.09,9.76-10.39,15.31A158,158,0,0,1,242.87,360.51ZM288.34,281c5.46,1.38,8.49-.65,11.87-7.78C296.5,276.11,292.83,279.16,288.34,281Zm46.75-17.12c-2.81-2-6-1-9-1.67-1.56-.34-1.52,1.78-1.55,2.94,0,1.55,1.24,1.37,2.14,1C329.35,264.88,331.88,263.34,335.09,263.83Zm-88.71,12.65c1.6-1.28,2.51-2.65,4.05-3.22.7-.26,1.68-.23,1.65-1.35a2.2,2.2,0,0,0-1.53-2,2.12,2.12,0,0,0-2.7.5C246.61,272.09,245.64,273.85,246.38,276.48Zm89,29.85c-1.1-3.38-3.11-4.88-5.43-4.16-.66.21-1.41.45-1.61,1.16-.25.89.64,1.12,1.19,1.41A13.72,13.72,0,0,0,335.37,306.33Zm-35.42-20c7.85,1,10.11-.18,9.78-3.67a15.4,15.4,0,0,1-4.5,2.19C303.58,285.3,302,285.78,300,286.35Zm-86.09,67.12c-.08,3.59,2.47,5.11,3.93,7.22.39.57,1,1.13,1.73.56s.15-1.28-.13-1.86A13.67,13.67,0,0,0,213.86,353.47Zm72.58,244.46c-.55-.55-.75-1.92-2.14-1.18a8.58,8.58,0,0,0-3.42,4c-.34.67,0,1.16.67,1.37.8.29,1.9.28,1.93-.64,0-1.71,1.08-2.15,2.36-2.52C286.26,598.83,286.49,598.55,286.44,597.93ZM335.65,298c-1.51-2.71-2.47-4.65-5.22-4.11-.66.13-1.47.4-1.53,1.16s.68.94,1.21,1.14C331.64,296.79,333.21,297.26,335.65,298Zm.15-8.9c-1.59-2.18-2.44-4.16-5.05-3.73-.69.11-1.45.37-1.61,1.08s.68,1.06,1.23,1.33A13.89,13.89,0,0,0,335.8,289.14Zm-1.54,24.8c-1.31-2.1-2.27-4-5-3.53-.64.11-1.41.4-1.53,1.15s.64.92,1.12,1.15A11.08,11.08,0,0,0,334.26,313.94ZM300.4,283.62c5.78-.62,6.9-1.51,7.39-5.79C305.94,280.59,303.47,281.82,300.4,283.62Zm-94.92,164c0,1.68,1,2.76,1.82,3.9a1.18,1.18,0,0,0,1.8.31c.87-.64.56-1.41,0-2A6.06,6.06,0,0,0,205.48,447.61Zm129-166c-1-1.89-1.9-3.19-3.94-3-.68.06-1.51.08-1.7.9s.74,1.11,1.29,1.31A8.27,8.27,0,0,0,334.45,281.62Zm-5.55-26.21c-.72-1.79-1.45-2.79-2.76-3.2a1.79,1.79,0,0,0-2.33.77c-.35,1,.81,1.18,1.48,1.43C326.29,254.78,327.34,255,328.9,255.41Zm3.83,65.6c-.5-1.65-1.19-2.6-2.33-3-.93-.35-2.18-.43-2.61.58s.9,1.29,1.57,1.58A24.32,24.32,0,0,0,332.73,321Zm-4.61-48.47a11.39,11.39,0,0,0,5.63,1.89C332.11,271.26,331.22,270.94,328.12,272.54ZM173.25,380.2c-3,2.26-3.43,3.14-2.63,6A10.47,10.47,0,0,0,173.25,380.2ZM324.56,246.49a3.66,3.66,0,0,0-2.1-2.62c-.95-.44-2.18-.42-2.6.58s.85,1.31,1.56,1.57C322.4,246.35,323.39,246.93,324.56,246.49ZM166.64,405.25c1-1.43,1.63-2.93.84-4.72a.56.56,0,0,0-1-.12,4,4,0,0,0-.39,4.61C166.15,405.1,166.28,405.11,166.64,405.25ZM294.76,253.14c2.25,0,3.71,1.51,5.56,3.16C299,252.44,298.21,252,294.76,253.14ZM231.23,531.65c-.87.35-2.34.07-2.32,1.56,0,.84,1,1.2,1.82,1a2.32,2.32,0,0,0,2.11-1.81C233,531.36,231.88,531.84,231.23,531.65Zm-39.8-153.53c1.55-1.32,2.57-2.58,2.71-4.33,0-.11-.55-.45-.66-.38A4.36,4.36,0,0,0,191.43,378.12Zm11.64-41.06a6.85,6.85,0,0,0,1.84.15c1.17-.34,2.65.44,3.5-.94.08-.13-.13-.59-.31-.71-1.48-.88-2.83-.39-4.14.44A8.49,8.49,0,0,0,203.07,337.06Zm95.64,247.28c1.89-.85,3.38-1.18,3.71-2.92,0-.14-.4-.53-.58-.52C300.11,581,299.35,582.16,298.71,584.34Zm32.53-256.69c-.42-.79-.57-1.14-.79-1.46a2.36,2.36,0,0,0-2.75-1.1c-.39.11-.84.34-.71.76.36,1.1,1.47,1.07,2.35,1.35C329.8,327.33,330.26,327.41,331.24,327.65Zm-1.89,5.75c-.74-1.08-1.37-2.14-2.94-1.82-.41.08-.89.32-.72.7.57,1.24,1.9,1.13,3,1.4C328.81,333.71,329,333.54,329.35,333.4Zm-5.52,4c1.09,1.4,2.34,1.52,4.1,1.51C326.82,337.29,325.94,336.28,323.83,337.39Zm-59.46-58.83c.65-.39,1.5-.83,1.63-1.77.1-.72-.48-1.05-1.14-.84s-1.61.4-1.58,1.43C263.3,278,263.37,278.6,264.37,278.56Zm73.25,279.19a2.66,2.66,0,0,0,1.65-1.88c.1-.52-.48-.75-1-.67a1.59,1.59,0,0,0-1.46,1.56A.82.82,0,0,0,337.62,557.75ZM303,528.9c1.59-.27,2.79-.23,3.24-1.62a.8.8,0,0,0-.41-.65C304.48,526.43,303.8,527.27,303,528.9Z" transform="translate(-84.43 -147.21)"/><path class="cls-1" d="M372.85,585.66c-6.8-1-12.62-2.68-18.68-3A12.72,12.72,0,0,0,346,584.9c-1.94,1.36-3.16,3.14-2.13,5.58.82,2,3.51,2.62,6,1.63.64-.25,1.19-.73,1.84-1,.89-.31,1.27-2.15,2.26-1.31s-.19,2-.62,2.91c-1.54,3.24-6.58,5.51-10.42,4.8-2.93-.53-4.85-2.77-5.15-6.08-.28-3,1.06-5.38,3.06-7.44,5.76-5.93,13.22-6.89,20.85-6.66a99.06,99.06,0,0,1,13.53,1.85c11.38,2,22.5.52,33.52-2.39.83-.21,2-1.34,2.53.12.43,1.29-1.09,1.41-1.91,1.79-8.8,4.09-17.95,6.85-27.73,7a3.54,3.54,0,0,0-2.94,1.58A52.49,52.49,0,0,0,371,602c-.6,1.61,0,1.83,1.37,1.93,2.25.16,4.37,0,6.11-1.61.55-.53,1.16-.93,1.8-.31s0,1.28-.36,1.82c-2.15,3.21-4.8,5.65-9,5.17-1.88-.22-2.58.67-3.16,2.26a48.75,48.75,0,0,1-7.79,14.61c-5.74,7.05-12.62,12.1-22.27,11.6-12.78-.64-21.47-13.61-16.61-24.61,1.37-3.08,3.57-5,7-5a4.84,4.84,0,0,1,4.81,2.87,4.58,4.58,0,0,1-.94,5.49,4.23,4.23,0,0,1-5.43.9c-2.28-1.38-2.25.39-2.45,1.66-1.18,7.23,6.48,14.75,14.17,13.94a15.86,15.86,0,0,0,10.19-4.94c4.76-5,7.52-11.09,10.17-17.3.63-1.49-.06-1.76-1.22-1.77a5,5,0,0,0-3.26,1.27c-.48.4-.93.77-1.54.22s-.24-1.1.06-1.58a9.15,9.15,0,0,1,6.11-4.37,4.23,4.23,0,0,0,3.37-2.87A43.44,43.44,0,0,1,372.85,585.66Z" transform="translate(-84.43 -147.21)"/><path class="cls-1" d="M240.43,637.55c-7.55-.66-14.48-3.42-18.46-11.14a14.87,14.87,0,0,1-.76-11.85,8.92,8.92,0,0,1,5.81-5.94,4.67,4.67,0,0,1,5.6,1.57,4.33,4.33,0,0,1,.19,5.52c-1.33,1.82-3.19,2.92-5.42,2-2.06-.87-2.47.13-2.65,1.74a9.94,9.94,0,0,0,3,8.1c5.82,6.3,18.92,7.51,25.83,2.39,7.28-5.39,6.73-15.35-1.28-19.46-4.65-2.39-9.69-4-14.43-6.25-4.21-2-8.14-4.38-11.14-8.2-4.46-5.7-1.68-14.93,5-17.72a18.45,18.45,0,0,1,14.73.1c3.34,1.38,6.64,3.55,10.07,0,.74-.77,1.48.07,1.57,1a51.91,51.91,0,0,0,3.26,14.44c.21.51.22,1-.33,1.26-1.12.5-1.33-.54-1.7-1.15A27,27,0,0,0,244,581.81a15.32,15.32,0,0,0-7-.71c-2.27.34-4.27,1.25-5,3.61-.79,2.52.47,4.51,2.26,6a33.12,33.12,0,0,0,7.69,4.46c4.56,2.17,9.15,4.3,13.64,6.59,6.8,3.47,9.38,9.35,9.11,16.69s-4.25,12.5-10.44,15.86C250.2,636.57,245.64,637.36,240.43,637.55Z" transform="translate(-84.43 -147.21)"/></svg>