<svg id="Réteg_1" data-name="Réteg 1" xmlns="http://www.w3.org/2000/svg" viewBox="0 0 337.15 297.98"><defs><style>.cls-1{fill:#fff;}</style></defs><title>haas</title><path class="cls-1" d="M421.61,411.08c-.22,31.28-11.61,64-35.4,92.15a148.64,148.64,0,0,1-135.6,51,148.69,148.69,0,0,1-110.75-80,134.1,134.1,0,0,1-8.94-22c-.52-1.71-1.33-2.2-3-2.19-13.52.06-27,0-40.55,0-3.43,0-3.45,0-1.82-2.92,5.42-9.63,10.9-19.23,16.26-28.89a4.61,4.61,0,0,1,4.63-2.71c5.07.12,10.14,0,15.2.08,2,.05,2.42-.61,2.34-2.48A149,149,0,0,1,237,262.42a145.65,145.65,0,0,1,81.65,3C352.46,276.47,379,297.14,398.22,327,413.53,350.9,421.2,377.22,421.61,411.08ZM299.82,421.23a27.32,27.32,0,0,0,3.28-5.2q25.56-43.56,51.12-87.11c.78-1.33.5-2.05-.47-3-2.4-2.37-4.88-4.66-7.49-6.8Q308.37,288,259.57,293a111.25,111.25,0,0,0-47.84,16.67,114.69,114.69,0,0,0-53.67,103.24c.1,2.08.62,2.66,2.71,2.66q31.54-.12,63.1,0a3.69,3.69,0,0,0,3.7-2.24c6-10.72,12.13-21.35,18.21-32l31.47-55.17a3.55,3.55,0,0,1,3.46-2c10.14.08,20.27,0,30.41,0l5.32,0c1.23,0,1.5.5.9,1.54-.3.51-.57,1-.86,1.55q-45.37,80-90.7,160.09a3.08,3.08,0,0,1-3.15,1.82c-8.28-.08-16.56,0-24.83,0h-4.73c30.37,31.92,92.77,48.51,145.17,11.92,53.82-37.58,58.39-103.88,38-142.57-.34.53-.69,1-1,1.51q-36.44,63.57-72.82,127.18a3.31,3.31,0,0,1-3.38,1.9c-11.23-.06-22.47,0-33.7,0-.87,0-1.75-.09-2.87-.14l.88-1.57c4.78-8.35,9.74-16.6,14.29-25.06,3.79-7.06.52-12.21-7.4-12.23-4.61,0-9.22,0-14,0a9,9,0,0,1,.38-1.23q8.64-16,17.28-32.08a2.15,2.15,0,0,1,2.21-1.27c3.8.07,7.62-.15,11.39.2C292.12,416.1,296.83,416.65,299.82,421.23ZM205.9,450.14c-13,0-25.38,0-37.77,0-2.13,0-1.33,1-.91,2a121.68,121.68,0,0,0,18.24,29.56c1.09,1.33,1.55,1.18,2.39-.28,4.7-8.27,9.51-16.48,14.27-24.71C203.3,454.69,204.46,452.66,205.9,450.14Z" transform="translate(-84.46 -257.97)"/></svg>