<svg id="Réteg_1" data-name="Réteg 1" xmlns="http://www.w3.org/2000/svg" viewBox="0 0 287.16 157.07"><defs><style>.cls-1{fill:#fff;}</style></defs><title>mclaren</title><path class="cls-1" d="M322.58,478.8c3.69-5.23,7.16-9.92,10.39-14.77,6.51-9.79,12.24-20,15.31-31.46,4.91-18.34-2.21-32.31-19.92-39.16-16.66-6.45-34.08-7.2-51.61-6.4a358.58,358.58,0,0,0-98.09,18.47c-1.16.39-2.33,1-3.68.5.38-1.47,1.65-2,2.79-2.7,56.14-33.86,115.67-59.57,179.72-74.21,22.92-5.24,46.12-8.69,69.77-6.83a64.18,64.18,0,0,1,20.68,4.69c12.11,5.24,16.75,15.1,12.85,27.71s-11.68,22.49-20.19,32c-21,23.46-45.79,42.67-71.12,61.15Q348.65,463,327,477C325.88,477.72,324.93,478.82,322.58,478.8Z" transform="translate(-174.98 -321.73)"/></svg>