<svg id="Réteg_1" data-name="Réteg 1" xmlns="http://www.w3.org/2000/svg" viewBox="0 0 487.44 185.5"><defs><style>.cls-1{fill:#fff;}</style></defs><title>red_bull</title><path class="cls-1" d="M382,492.37a100.1,100.1,0,0,1-12.63,14A92,92,0,0,1,335.65,526c-11.37,3.61-22.92,5.59-34.78,4.58-26.23-2.24-48.09-13.29-65.08-33.52-2-2.42-3.12-3-5.11-.16-1.48,2.12-4.23,2.65-6.51,2.78-5.58.33-10,3.59-15.16,5-3.64,1-7.15,2.51-11.11,2.18a12.19,12.19,0,0,1-9.83-6c-1.22-2-2.62-3.26-5-3.17a2.22,2.22,0,0,1-.63-.08c-3.66-.93-9.49-12.17-8.1-15.68a5,5,0,0,1,3.59-3.3c4-.66,7.88-2.05,12-1.39a7,7,0,0,0,5.93-1.87c-.84-1.36-2.14-1-3.07-.59-3.21,1.48-6.56,1.19-9.74.56-8.11-1.61-16.1-.69-24.13.38-1.11.15-1.35.77-1.61,1.61-3.29,10.3-11.58,15.06-20.87,18.52-2.79,1-5.9.63-8.85,0-1.35-.28-2.7-.59-4.06-.79-3.67-.56-6.56.49-9.39,3.19-4,3.83-8.75,6.67-14.82,5.08-1.32-.35-1.82.65-2.41,1.6-4.22,6.89-9.4,8-17.54,5.87a5.2,5.2,0,0,0-3.14-.24c-4,1.56-7.16-.58-10.32-2.19-2.33-1.19-3-4.5-1.54-7.06a13.34,13.34,0,0,0,1.4-4.8c.22-1.47.36-3.11,1.5-4.11,4.8-4.2,8.61-9.54,14.35-12.65,3.34-1.81,5.32-1.56,8.54,1.5,1.93,1.83,2.78,1.44,3.53-.81.27-.8.81-1.52,1-2.33,1.58-5.89,5.19-9,11.48-8.59a8.65,8.65,0,0,0,3.61-1c1.79-.68,2.05-1.63,1.44-3.14a28.17,28.17,0,0,1-2.32-10.85c0-1.46-.55-1.68-2-1.33-9.31,2.27-21.2-2.77-25.94-11.17C76.49,434.2,76.57,422,84,414.53c2.35-2.37,4.68-4.75,7.24-7.35A21.17,21.17,0,0,1,76.5,393.71c-2.1-5.5-.41-10.12,2.68-14.63.93-1.35,1.93-.74,2.78-.4a13,13,0,0,1,3.5,2.06c4.13,3.43,9.18,4.31,14.17,5.6,5.43,1.4,10.82,3.21,13.36,9,2.15,4.89,2,9.68-1.19,14.15s-7.9,7.79-12,11.55c-2.47,2.28-5.13,4.5-5.21,8.36-.13,5.68,4.2,9,9.62,7.37,7.3-2.16,12.77-7.27,18.86-11.41,5.49-3.73,11.2-6.91,18.18-7.26,5.3-.26,10.23-1.82,14.25-5.84a30.08,30.08,0,0,1,20.94-9,4.16,4.16,0,0,0,3-1.54c5.22-5.48,11.71-8.51,19-10.44a38.38,38.38,0,0,0,13.23-6.39c5.76-4.33,12.29-4.28,18.84-3.4,2.12.28,3.27,0,4.53-1.53a92,92,0,0,1,58.38-33.5,88.81,88.81,0,0,1,12.69-1.07q42.07.21,70.26,31.46a59.65,59.65,0,0,1,4.81,5.86c1,1.41,2,1.7,3.11.65,9.16-8.33,20.93-3.05,27.59,3.77,3.17,3.25,6.74,4.43,10.63,5.47a47.08,47.08,0,0,1,16.44,7.52c3.05,2.28,6.23,4.1,10.3,4.35a13.8,13.8,0,0,1,7.19,3c6,4.58,12.41,8,20,9.34,7.88,1.39,14.56,5.63,21.11,10a131,131,0,0,0,12.52,7.7,9.54,9.54,0,0,0,8.35.37c2.79-1.26,3.49-4.52,1.92-7.7-2.06-4.17-5.64-7-8.81-10.2-3.34-3.37-7-6.58-8.35-11.31-2.12-7.38,1.77-14.25,9.78-18.05,3.76-1.78,7.82-2.47,11.75-3.6a13.28,13.28,0,0,0,4.47-2.73c3.21-2.44,7.28-1.23,8.25,2.64,2.19,8.73-.25,19.42-10.58,22.91-2,.66-2,1.49-.42,3a37.5,37.5,0,0,1,10.39,16.34C540,437,533.06,447.52,523.5,451.5a24,24,0,0,1-10.63,1.4c-1.69-.08-2.32.39-2.16,2.1a26.86,26.86,0,0,1-1.52,11.31c-.37,1.06-.61,2,.9,1.93,9.38-.54,12,5.74,13.53,13.23,0,.17.21.31.32.46,6.94-5.53,11.35-2,17.49,4.51a13.57,13.57,0,0,0,3.34,3.13,6.24,6.24,0,0,1,3.41,3.93c1,3.45,2,6.9,2.7,10.42a4.48,4.48,0,0,1-2.65,5.25c-3.44,1.48-6.75,3.47-10.86,1.92-1.33-.5-3.11.19-4.69.32-5.35.47-9.73-1.25-12.9-5.71-.86-1.21-1.46-1.61-3.3-.92a10.41,10.41,0,0,1-10.16-1.72c-2.84-2.1-5.63-4.27-9-5.63-3.85-1.55-7.71-1.26-11.62-1.07-9.64.49-18.21-4.44-21.63-12.7a39.26,39.26,0,0,1-1.83-6.42c-.25-1.13-.59-1.54-1.86-1.52-8.42.11-16.86-.18-25.25.27-4.64.25-9.23,1.42-13.94,1.11-.56,0-1.44-.19-1.33.8.09.83.87.77,1.5.77,3,0,6-.1,9-.07,7.05.08,9.73,4.79,6.19,10.81-2.05,3.5-4.61,6.5-8.4,8.18-.84.37-1,1.09-1.26,1.71-3.08,6.67-8.61,9.74-16.4,7-3.58-1.26-7.25-2.17-10.86-3.28-2.59-.79-5-1.5-6.85-3.54-.61-.67-1.35-.47-2.07-.51C385.55,498.74,384.18,497.76,382,492.37Zm83.93-41.85c1.2.3,1.12,1,1.33,1.6,1.94,5.23,2,10.89,3.71,16.15,3.14,9.79,9.13,17.29,22.19,15.43a23.67,23.67,0,0,1,11,1.23c4.36,1.47,9.53,5.6,10.53,8.7-.33-.07-.72,0-.91-.22-6.93-6.52-15.14-8.57-24.43-7.33a14.4,14.4,0,0,1-7.55-.67c-6.18-2.54-10-7.28-12.94-13-.33-.66-.4-1.93-1.65-1.47a1.86,1.86,0,0,0-1.07,2.38c.54,2.49.91,5.05,1.68,7.47a16.55,16.55,0,0,0,18.57,11,19,19,0,0,1,7,0,28.48,28.48,0,0,1,14,6.5c3,2.59,6.24,3.58,9.9,1.28,1.89-1.19,3.26-.13,4.45,1.18.86.94,1.5,2.07,2.32,3,2.12,2.52,8.48,4,11.45,2.73a1.61,1.61,0,0,0,.71-.54c.87-1.43-1.8-9-3.51-9.34-2.36-.43-3.65-2-5-3.62-4.37-5-9.38-9.5-10.4-16.64-.32-2.25-2.19-3.21-4.55-3.11a13.1,13.1,0,0,1-3.48-.33c-5.05-1.2-6-3.11-4.33-8a22.47,22.47,0,0,0,.62-13.81c-.95-3.32-.31-4.08,2.9-3.14a19.77,19.77,0,0,0,11.94-.21c6.41-2.07,10.8-6.14,12.32-12.93,1.38-6.17-1.16-11.27-4.46-16.1-2.72-4-6.38-7.09-10-10.26-.81-.71-1.87-1.47-1.5-2.57s1.56-1.34,2.62-1.6c1.75-.43,3.52-.83,5.24-1.35a13.49,13.49,0,0,0,8.82-16.27c-.45-1.64-1-2.34-2.52-.88-2,1.91-4.48,2.68-7.14,3.22-4.28.87-8.44,2.09-12,4.78-5.31,4-6.19,8.73-2.42,14.08,2.1,3,4.85,5.33,7.42,7.86,2.87,2.84,5.75,5.68,7.63,9.33,4.1,8-.93,14.11-6.76,14.92-6.63.92-12.14-1.73-17.33-5.66-8-6-16.28-11.58-26.37-13.53-5.81-1.12-11.25-3-15.9-6.84a22.89,22.89,0,0,0-12.29-5.58,15.21,15.21,0,0,1-7.47-3.25,47.1,47.1,0,0,0-14.64-7.48c-5.84-1.67-12-2.58-15.91-8.28-1.17-1.7-3.53-2.7-5.5-3.7-5.12-2.6-10.26-3-14.87,1-7.91,7-16.75,12.65-25,19.13-9.47,7.44-18.94,15-22.61,27.25-2.48,8.24-4.7,16.57-6.87,24.9-2.85,10.91-6.92,21-16.65,27.81-.58.4-1.46.65-1.12,1.65.28.83,1,1,1.78,1.13a9.83,9.83,0,0,0,8.48-2.79,45.34,45.34,0,0,0,5-6.56c1.49-2.07,2.66-4.48,5.35-5.54-3.4,5.38-5,11.8-10.09,16.18-1.07.93-3.54,1.7-2.42,3.44.87,1.36,3.16.51,4.82.29a7.28,7.28,0,0,0,1.19-.46c4.28-1.43,7.43-4.49,10.52-7.54,1.66-1.63,2.89-1.67,4.58-.12s3.61,3.8,6.3,3.13c6.36-1.6,11.93.87,17.62,2.9s9.26-.9,8.34-6.94c-.2-1.32-.34-2.37,1.52-2.26,3.34.2,3.06-2,1.93-3.7-3.07-4.57-4.72-10-8.72-14-1.74-1.74-3.44-3.62-3.69-6.87,1.3,1,2.25,1.7,3.08,2.47,4.78,4.44,10.62,5.5,16.84,5.33,2.22-.06,3.17-.9,2.07-3.24a51.26,51.26,0,0,1-2.56-6.52c-1.33-4.29-2.35-8.65-1.43-13.19.16-.79.23-2,1.26-2s.92,1.22,1,2c.21,2.12.31,4.25.65,6.35,1,6.26,2.94,12,9,15.35,3.7,2.07,4,3.86,1.65,7.47-3,4.68-7.36,8.74-6.83,15.71-2.41-3.79-2.57-6.86-.58-10,1.37-2.15,2.74-4.31,4.13-6.45.78-1.21,2.25-2.45,0-3.61-1.72-.9-3.61-1.78-4.93.62q-3.24,5.86-6.39,11.77a4.54,4.54,0,0,0-.35,3.43c.79,2.87,1.58,5.75,2.46,8.59.47,1.52,1.49,2.88,3.17,2.65a7.63,7.63,0,0,1,7.07,2.68c.93,1,2.68,1.21,4.1,1.63,3.46,1,7,1.85,10.42,2.95,6.44,2.06,9.66.53,11.68-5.83.41-1.3.86-2.49,2.4-2.56,2.49-.12,3.77-1.85,4.86-3.67s3.15-3.36,2.16-5.35-3.47-.57-5.26-.91c-5.29-1-8.51,1.21-10,6.33a3.85,3.85,0,0,1-4.45,2.81,17,17,0,0,1-8.37-2.82c-1.58-1.13-3.46-2.85-1.84-5.06,2.36-3.23,4.8-6.43,8.86-7.93a14.76,14.76,0,0,0,7.52-6.59c.78-1.31.57-4.35,2.7-3.52,1.79.69.14,3-.39,4.49s-.29,2.37,1.6,2.22c2.34-.18,4.73.06,7-.35,7.87-1.39,15.68-2.33,23.77-1.67,10.52.86,14.2-3.58,12.72-14.06A24.79,24.79,0,0,1,465.9,450.52ZM222.22,490.67a23.05,23.05,0,0,1,.54-3.51c1.25-4,.08-7.52-2-10.9-1.4-2.26-2.76-4.55-4-6.88-1.8-3.27-1.31-4.76,2.32-5.31,5-.75,7.66-3.68,9.08-8.19.64-2,1.21-4.08,1.92-6.08.28-.78,0-1.9,1.28-2.56a20.41,20.41,0,0,1-2,13.49c-.66,1.29-2.58,2.64-1,4.22,1.32,1.29,3.23.65,4.88.28,1-.23,2-.7,3.05-.94a61.81,61.81,0,0,1,10.47-1.45c-2.3,4.74-3.9,9.53-8,12.73a4.26,4.26,0,0,0-1.31,2.84c-.13.94.05,1.88,1.25,1.7,4.38-.65,1.27,1.61.83,2.37-1.55,2.7-1.79,6.94-.05,9,1.94,2.3,4.52,2,7.07,1.27,1.53-.42,3.08-.82,4.58-1.36,3.73-1.33,7.55-2.68,11.51-1.88s6.88-.53,9.77-2.71c3.62-2.74,3.61-2.76,7,.48a20.39,20.39,0,0,0,14,5.91c1.05,0,2.64.64,2.94-1,.22-1.25-1.23-1.61-2.12-2.06-3.28-1.64-6.69-3.44-8.24-6.76a100,100,0,0,0-6.57-12.66,11.56,11.56,0,0,1,4.85,3.39c1.56,1.78,2.53,3.93,3.87,5.84,3,4.22,6.84,6.92,12.22,6.89.76,0,1.6-.08,1.87-.91.32-1-.6-1.3-1.22-1.59-7.9-3.67-10.91-11.8-15.33-18.2-4.28-6.2-5.49-14.42-6.68-22.13-1-6.71-1.83-13.25-5.92-19.25-9.37-13.74-21.59-24.47-34.59-34.43-7.69-5.89-16.66-7.6-26.15-.61a31.2,31.2,0,0,1-9.12,4.46c-8.32,2.64-16.6,5.35-22.54,12.39a3.84,3.84,0,0,1-3.12,1.4c-8.07-.6-14.26,3.12-19.91,8.39-3.22,3-7.07,5.53-11.54,5.6-10.21.16-18.33,4.85-25.68,11.2a39.8,39.8,0,0,1-10.15,6.35c-5.11,2.24-10.47,3.44-15.54,0-6.43-4.34-6.32-13.93.08-20,4.15-3.95,8.82-7.35,12.61-11.68a9.43,9.43,0,0,0-2.75-14.9,33,33,0,0,0-4.15-1.62c-5.16-1.83-10.91-1.77-15.51-5.41-3.51-2.78-4.58-2.15-4.88,2.33a9.4,9.4,0,0,0,.23,2.53,15.38,15.38,0,0,0,14.9,12c1.68,0,3.92-.84,4.8,1.42,1,2.54-1.6,3.11-2.9,4.26-3.58,3.16-7.29,6.17-10.41,9.82A19.15,19.15,0,0,0,86,441.4c5,6.69,14.45,9.46,23.66,6.76,2.53-.74,3.75-.6,3.67,2.49a32.85,32.85,0,0,0,2.9,15.23c1,2.17.49,4-1.86,5.35-3.11,1.73-6.28,3.29-9.88,3.17-2.73-.09-4,1.11-4.87,3.53s-1.52,4.89-3.1,6.59a69.25,69.25,0,0,1-12.7,10.71c-3.91,2.57-4.48,5.74-5.58,9.23-.34,1.07.15,1.7,1.37,2,7.57,2,10,1.08,14.38-5.55,1.12-1.69,2.28-3,4.66-2.38a11.86,11.86,0,0,0,12.49-3.67c4-4.42,8.78-4.9,14.26-4.05,3,.46,6,1.61,9.15.62,8.39-2.68,15.51-6.79,18.58-15.81.63-1.83.2-2.78-1.2-3.71-1.88-1.25-2.21.6-2.76,1.5a23,23,0,0,1-16,11,49.36,49.36,0,0,1-9.25.42c-8.74,0-16.58,2.28-22.84,8.75-.24.25-.64.64-1.3-.19,2-4.42,5.84-6.89,10.23-8.61,5.65-2.22,11.69-2,17.61-2.59,10.72-1.07,17.27-5.69,20.43-15.83.94-3,1.16-6.27,1.79-9.39.37-1.85.24-3.93,2-5.54,1,1.58.53,3,.26,4.24a27.65,27.65,0,0,0-.34,8c.46,5.58,2.36,7.26,7.92,7.16a25.43,25.43,0,0,0,5.1-.31,30.94,30.94,0,0,1,13,.05c3.95.76,7.92,1.74,12,1.35,3.14-.3,3.91-1.35,3.14-4.32-.22-.82-.48-1.64-.63-2.48s0-1.65.83-1.85c1-.24,1.22.8,1.33,1.44.74,4.38,3.81,7,7.07,9.43,1.44,1.08,3,1.95,4.57,2.9a14.46,14.46,0,0,1,6,6.78c.7,1.69,1,3.47-.21,5.16-4.48,6.11-12.9,5.65-16.52-.92-.46-.84-1-1.62-1.45-2.47-1.82-3.54-4.77-4.64-8.53-4.05-1.58.25-3.16.45-4.72.77-1.86.38-2.59,1.47-1.6,3.24,1.3,2.32,2.69,4.58,4,6.88a2.16,2.16,0,0,0,2.42,1.15c3-.6,4.25,1.16,5.56,3.52,2.78,5,6.54,6.31,12.07,4.56,3-1,6.1-1.85,9.06-3,4.22-1.66,8.13-4.16,13-3.8a3.87,3.87,0,0,0,3.14-2,44.22,44.22,0,0,0,4.69-8.32,6.87,6.87,0,0,0-.65-6.68c-1.71-2.69-3.53-5.37-4.45-8.45-.82-2.73-3-3.15-5.22-3.23-1.83-.06-2.86.64-1.72,2.75,1.72,3.18,3.29,6.43,4.92,9.66C228.06,483.21,226.8,487.56,222.22,490.67Zm-18.59-10.53c-2.22.14-4.45.22-6.66.44-.89.09-2.39.43-1.3,1.67,1.93,2.2,3,4.83,4.48,7.26a2.48,2.48,0,0,0,2.22,1c4.13.08,6.15-2.59,4.78-6.37-.32-.9-.63-1.81-1-2.69A2.07,2.07,0,0,0,203.63,480.14ZM537.2,496.9c.55,2.15,1.16,4.29,1.65,6.46.95,4.17,1.19,4.34,5.27,2.75,1.09-.43,3-.65,2.18-2.41-1.15-2.67-1.46-5.5-2.23-8.24a2.89,2.89,0,0,0-3.63-2.27C538.56,493.6,537.16,494.69,537.2,496.9ZM72.54,506.41c1.9.36,2.21-.79,2.53-1.79.68-2.13,1.29-4.28,1.9-6.42s-.91-5.53-2.84-5.45c-2.2.09-3.47,1.73-3.79,4s-.35,4.47-1.84,6.34a1.18,1.18,0,0,0,.27,1.93C70.09,505.61,71.53,506,72.54,506.41Zm340.28-24.76c-4.77.06-6.56,1.52-6.46,5.09.06,2.3,2.29,3.75,5.77,3.77,2.45,0,4.52-3.12,4.49-7C416.6,480.11,413.93,482.27,412.82,481.65Zm117.32,1.94c-2.21.1-3.75,2.42-2.63,4.29a17,17,0,0,0,4.62,5.2c1.57,1.12,2.82.32,4-.61,1.05-.79,2-1.72,1.71-3.18S531.59,483.52,530.14,483.59Zm-449.06,9.6c2.8-.67,4.24-3.18,5.87-5.49.83-1.17,1-2.24-.18-3.36a2.61,2.61,0,0,0-3.46-.41,55.35,55.35,0,0,0-4.86,3.5,2.65,2.65,0,0,0-.86,3.41A4,4,0,0,0,81.08,493.19Z" transform="translate(-63.54 -345.32)"/><path class="cls-1" d="M344.27,460.73a11.27,11.27,0,0,1,3.23-7.63,59.35,59.35,0,0,0,6.3-7.16c1.26-1.75,2.32-1.49,3.55-.1a21.93,21.93,0,0,1,3.71,6.29,1.65,1.65,0,0,1-.46,2.27,1.5,1.5,0,0,1-2.2-.63c-1.83-3.21-3.69-1.73-5.66-.2-2.81,2.17-5.57,4.36-5.95,8.27-.08.83-.48,1.51-1.42,1.34C343.74,462.88,344.59,461.48,344.27,460.73Z" transform="translate(-63.54 -345.32)"/><path class="cls-1" d="M381.21,421.81c-1-5.65,1.83-9.71,5.17-13.52a29.25,29.25,0,0,1,4.24-3.85c1-.79,2.42-1.2,3.47,0s.42,2.4-.57,3.37c-2.36,2.3-4.76,4.56-7.11,6.87C384.31,416.76,383,419.43,381.21,421.81Z" transform="translate(-63.54 -345.32)"/><path class="cls-1" d="M353.24,477.73c-.1-1.17.29-1.94,1.77-1.86,2,.1,4.58,2.4,4.6,4.22,0,1.45-.76,2.11-2.19,2.14A4.45,4.45,0,0,1,353.24,477.73Z" transform="translate(-63.54 -345.32)"/><path class="cls-1" d="M260.13,454.19c-1.14-4.35.85-7.39,2.82-10.34a2.05,2.05,0,0,1,3.34-.37c3.35,4.12,7.71,7.72,7.62,13.75a9.38,9.38,0,0,1-.11,1.59c-.2,1.06-.58,2.43-1.66,2.45-1.39,0-1.15-1.53-1.25-2.5a9.55,9.55,0,0,0-1-4C266.82,449.58,264.71,449.36,260.13,454.19Z" transform="translate(-63.54 -345.32)"/><path class="cls-1" d="M232.15,427c-1.26-1.22-1.19-2.91-1.53-4.37a21.52,21.52,0,0,0-3.33-8.17c-.86-1.19-1.49-2.65,0-3.61s2.56.2,3.46,1.35C233.59,415.8,234.21,422.11,232.15,427Z" transform="translate(-63.54 -345.32)"/><path class="cls-1" d="M260.36,481.66c-.91-.16-2.43.39-2.4-1.49,0-1.64,3.37-4.45,5.2-4.59s1.87.89,1.87,2.2C265,480.59,263.86,481.61,260.36,481.66Z" transform="translate(-63.54 -345.32)"/></svg>