<svg id="Réteg_1" data-name="Réteg 1" xmlns="http://www.w3.org/2000/svg" viewBox="0 0 336.15 253.11"><defs><style>.cls-1{fill:#fff;}</style></defs><title>williams</title><path class="cls-1" d="M292.75,359.8c-11.95,32.06-26.81,62-40,92.73-8.46,19.67-17.46,39.1-25.94,58.76-1.56,3.62-3.56,4.42-7.19,4.52-3.78.1-4.67-1.89-5.69-4.73-5.28-14.69-10.59-29.37-16.13-44-1.18-3.12-.75-5.57.58-8.45q44-95.42,87.87-190.91c1.25-2.72,2.14-5.12,6.28-5.05,3.92.07,5.12,2,6.45,4.86q43.89,95.49,87.9,190.91a10.75,10.75,0,0,1,.34,9.11c-5.54,14.59-10.74,29.31-16,44-.83,2.28-1.42,4.62-4.77,4.12-2.76-.42-5.59.86-7.36-3.2-20.59-47.13-41.44-94.14-62.16-141.21C295.34,367.82,294.3,364.16,292.75,359.8Z" transform="translate(-124.09 -262.71)"/><path class="cls-1" d="M394.77,446.8c-3.53-7.52-6.76-14.33-9.92-21.18-6.7-14.53-13.24-29.14-20.11-43.59a10.27,10.27,0,0,1-.31-8.48q18-51.87,35.83-103.81c1.19-3.49,2.62-5,6.65-5,16.46.27,32.93.22,49.39,0,4.11-.05,4.65.82,3.22,4.7C438,328.25,416.54,387.08,394.77,446.8Z" transform="translate(-124.09 -262.71)"/><path class="cls-1" d="M190.52,446.83c-22.33-61.17-44.22-121.15-66.43-182,12.58,0,24.51-.12,36.43,0,7.38.1,16.52-2.93,21.64,1.16,4.79,3.82,5.45,12.87,7.8,19.66,10.14,29.28,20.17,58.6,30.43,87.84a12.24,12.24,0,0,1-.7,10.16c-9,19.17-17.8,38.47-26.66,57.72C192.4,442.82,191.76,444.19,190.52,446.83Z" transform="translate(-124.09 -262.71)"/></svg>